<?xml version="1.0" encoding="utf-8"?>
<!-- Generator: Adobe Illustrator 18.0.0, SVG Export Plug-In . SVG Version: 6.00 Build 0)  -->
<!DOCTYPE svg PUBLIC "-//W3C//DTD SVG 1.1//EN" "http://www.w3.org/Graphics/SVG/1.1/DTD/svg11.dtd" [
	<!ENTITY ns_flows "http://ns.adobe.com/Flows/1.0/">
	<!ENTITY ns_extend "http://ns.adobe.com/Extensibility/1.0/">
	<!ENTITY ns_ai "http://ns.adobe.com/AdobeIllustrator/10.0/">
	<!ENTITY ns_graphs "http://ns.adobe.com/Graphs/1.0/">
]>
<svg version="1.1" id="Layer_1" xmlns:x="&ns_extend;" xmlns:i="&ns_ai;" xmlns:graph="&ns_graphs;"
	 xmlns="http://www.w3.org/2000/svg" xmlns:xlink="http://www.w3.org/1999/xlink" xmlns:a="http://ns.adobe.com/AdobeSVGViewerExtensions/3.0/"
	 x="0px" y="0px" viewBox="0 0 1400 980" enable-background="new 0 0 1400 980" xml:space="preserve">
<g>
	<rect fill="#FBFBFB" width="1400" height="980"/>
	<g>
		<g>
			<path fill="#F57F24" d="M763.3,350.1l-6.3-6l0,0c-1.7-0.4-3.5,0.8-3.8,2.5l-3.3,16.2c-0.8-1-1.7-1.7-2.9-2
				c-3.5-0.7-6.9,1.4-8,6.8c-1.1,5.5,1.2,8.7,4.7,9.4c3.3,0.7,6.5-1,7.8-6.1l0,0l4.7-23.1l4.8,4.6c0.7,0.6,1.8,0.6,2.4-0.2
				C763.9,351.6,763.9,350.7,763.3,350.1z"/>
			<path fill="#F57F24" d="M1028.8,572.3l-6.3-6l0,0c-1.7-0.4-3.5,0.8-3.8,2.5l-3.3,16.2c-0.8-1-1.7-1.7-2.9-2
				c-3.5-0.7-6.9,1.4-8,6.8c-1.1,5.5,1.2,8.7,4.7,9.4c3.3,0.7,6.5-1,7.8-6.1l0,0l4.7-23.1l4.8,4.6c0.7,0.6,1.8,0.6,2.4-0.2
				C1029.5,573.8,1029.4,572.9,1028.8,572.3z"/>
			<path fill="#4883C4" d="M153.3,331.2l-8.2-2.9l0,0c-1.7,0.4-2.9,2.1-2.5,3.8l3.5,16.2c-1.1-0.6-2.3-0.9-3.4-0.7
				c-3.5,0.7-5.8,4-4.6,9.5s4.6,7.5,8,6.7c3.3-0.7,5.6-3.5,4.7-8.7l0,0l-4.9-23.1l6.3,2.3c0.9,0.3,1.9-0.2,2.1-1.1
				C154.5,332.3,154.1,331.4,153.3,331.2z"/>
			<path fill="#4883C4" d="M672.1,549.1l-8.2-2.9l0,0c-1.7,0.4-2.9,2.1-2.5,3.8l3.5,16.2c-1.1-0.6-2.3-0.9-3.4-0.7
				c-3.5,0.7-5.8,4-4.6,9.5c1.2,5.5,4.6,7.5,8,6.7c3.3-0.7,5.6-3.5,4.7-8.7l0,0l-4.9-23.1l6.3,2.3c0.9,0.3,1.9-0.2,2.1-1.1
				C673.3,550.3,672.9,549.4,672.1,549.1z"/>
			<path fill="#4883C4" d="M412,626.6l-8.2-2.9l0,0c-1.7,0.4-2.9,2.1-2.5,3.8l3.5,16.2c-1.1-0.6-2.3-0.9-3.4-0.7
				c-3.5,0.7-5.8,4-4.6,9.5c1.2,5.5,4.6,7.5,8,6.7c3.3-0.7,5.6-3.5,4.7-8.7l0,0l-4.9-23.1l6.3,2.3c0.9,0.3,1.9-0.2,2.1-1.1
				C413.2,627.7,412.8,626.9,412,626.6z"/>
			<path fill="#4883C4" d="M1049.9,718.3l-4.8-7.2l0,0c-1.6-0.7-3.5,0-4.3,1.6l-6.8,15.1c-0.5-1.2-1.3-2.1-2.4-2.6
				c-3.3-1.5-7-0.2-9.3,4.9s-0.7,8.7,2.5,10.2c3.1,1.4,6.6,0.5,9-4.2l0,0l9.7-21.5l3.7,5.5c0.5,0.8,1.6,0.9,2.3,0.4
				C1050.2,719.9,1050.3,719,1049.9,718.3z"/>
			<path fill="#B65DA4" d="M130.1,154l-8.7,0.3l0,0c-1.5,1-1.9,3-0.9,4.5l9.2,13.7c-1.3-0.2-2.5,0-3.4,0.7c-3,2-3.8,5.9-0.7,10.5
				s7,5.2,10,3.2c2.8-1.9,3.9-5.4,1.1-9.8l0,0l-13.2-19.6l6.7-0.2c0.9,0,1.7-0.9,1.5-1.8C131.7,154.6,131,154,130.1,154z"/>
			<path fill="#B65DA4" d="M1293.5,396.8l-8.7,0.3l0,0c-1.5,1-1.9,3-0.9,4.5l9.2,13.7c-1.3-0.2-2.5,0-3.4,0.7c-3,2-3.8,5.9-0.7,10.5
				c3.1,4.6,7,5.2,10,3.2c2.8-1.9,3.9-5.4,1.1-9.8l0,0l-13.2-19.6l6.7-0.2c0.9,0,1.7-0.9,1.5-1.8
				C1295,397.3,1294.3,396.7,1293.5,396.8z"/>
			<path fill="#B65DA4" d="M1045.8,312.1l-8.6-1l0,0c-1.6,0.8-2.3,2.7-1.6,4.3l7,15c-1.2-0.4-2.4-0.4-3.5,0.1
				c-3.2,1.5-4.7,5.2-2.3,10.3c2.4,5.1,6.1,6.3,9.3,4.7c3.1-1.4,4.7-4.7,2.6-9.6l0,0l-10-21.4l6.6,0.8c0.9,0.1,1.8-0.6,1.8-1.5
				C1047.2,312.9,1046.6,312.2,1045.8,312.1z"/>
			<path fill="#B65DA4" d="M718.2,157l-7.8-3.9l0,0c-1.8,0.2-3.1,1.7-2.9,3.5l1.5,16.5c-1-0.8-2.2-1.2-3.3-1.1
				c-3.6,0.3-6.2,3.3-5.7,8.9s3.6,7.9,7.2,7.6c3.4-0.3,6-2.9,5.7-8.1l0,0l-2.2-23.5l6,3c0.8,0.4,1.9,0,2.2-0.9
				C719.3,158.2,718.9,157.3,718.2,157z"/>
			<path fill="#FEDA0C" d="M153.8,577.6l-6.3-6l0,0c-1.7-0.4-3.5,0.8-3.8,2.5l-3.3,16.2c-0.8-1-1.7-1.7-2.9-2
				c-3.5-0.7-6.9,1.4-8,6.8c-1.1,5.5,1.2,8.7,4.7,9.4c3.3,0.7,6.5-1,7.8-6.1l0,0l4.8-23.1l4.8,4.6c0.7,0.7,1.8,0.6,2.4-0.2
				C154.5,579.1,154.4,578.2,153.8,577.6z"/>
			<path fill="#FEDA0C" d="M731.2,710.7l-6.3-6l0,0c-1.7-0.4-3.5,0.8-3.8,2.5l-3.3,16.2c-0.8-1-1.7-1.7-2.9-2
				c-3.5-0.7-6.9,1.4-8,6.8c-1.1,5.5,1.2,8.7,4.7,9.4c3.3,0.7,6.5-1,7.8-6.1l0,0l4.8-23.1l4.8,4.6c0.7,0.7,1.8,0.6,2.4-0.2
				C731.8,712.2,731.8,711.3,731.2,710.7z"/>
			<path fill="#FEDA0C" d="M452.9,95.1l-8,3.3l0,0c-1,1.4-0.7,3.5,0.7,4.5l13.4,9.7c-1.3,0.3-2.3,0.9-3,1.8
				c-2.1,2.9-1.6,6.8,2.9,10.1s8.4,2.5,10.5-0.4c2-2.8,1.8-6.4-2.3-9.6l0,0L448,100.6l6.2-2.5c0.9-0.4,1.3-1.4,0.8-2.2
				C454.6,95.1,453.7,94.8,452.9,95.1z"/>
			<path fill="#FEDA0C" d="M1253.7,177l-8,3.3l0,0c-1,1.4-0.7,3.5,0.7,4.5l13.4,9.7c-1.3,0.3-2.3,0.9-3,1.8
				c-2.1,2.9-1.6,6.8,2.9,10.1c4.5,3.3,8.4,2.5,10.5-0.4c2-2.8,1.8-6.4-2.3-9.6l0,0l-19.1-13.9l6.2-2.5c0.9-0.4,1.3-1.4,0.8-2.2
				C1255.4,177.1,1254.5,176.7,1253.7,177z"/>
			<path fill="#AFD136" d="M456.4,208.2l-8.1-3l0,0c-1.7,0.4-2.9,2.1-2.5,3.8l3.4,16.2c-1.1-0.6-2.3-0.9-3.4-0.7
				c-3.5,0.7-5.8,4-4.6,9.4c1.1,5.5,4.5,7.5,8,6.7c3.3-0.7,5.6-3.5,4.8-8.7l0,0l-4.8-23.1l6.3,2.3c0.9,0.3,1.9-0.2,2.1-1.1
				C457.6,209.4,457.2,208.5,456.4,208.2z"/>
			<path fill="#AFD136" d="M1003.1,112.2l-8.1-3l0,0c-1.7,0.4-2.9,2.1-2.5,3.8l3.4,16.2c-1.1-0.6-2.3-0.9-3.4-0.7
				c-3.5,0.7-5.8,4-4.6,9.4s4.5,7.5,8,6.7c3.3-0.7,5.6-3.5,4.8-8.7l0,0l-4.8-23.1l6.3,2.3c0.9,0.3,1.9-0.2,2.1-1.1
				C1004.3,113.4,1003.9,112.5,1003.1,112.2z"/>
			<path fill="#AFD136" d="M1308.2,645.5l-8.1-3l0,0c-1.7,0.4-2.9,2.1-2.5,3.8l3.4,16.2c-1.1-0.6-2.3-0.9-3.4-0.7
				c-3.5,0.7-5.8,4-4.6,9.4c1.1,5.5,4.5,7.5,8,6.7c3.3-0.7,5.6-3.5,4.8-8.7l0,0l-4.8-23.1l6.3,2.3c0.9,0.3,1.9-0.2,2.1-1.1
				C1309.4,646.6,1309,645.7,1308.2,645.5z"/>
		</g>
		<g>
			<ellipse fill="#E6E7E8" cx="286.2" cy="466.9" rx="107.9" ry="22"/>
			<ellipse fill="#E6E7E8" cx="579.2" cy="466.9" rx="107.9" ry="22"/>
			<ellipse fill="#E6E7E8" cx="870.4" cy="466.9" rx="107.9" ry="22"/>
			<ellipse fill="#E6E7E8" cx="1150.3" cy="466.9" rx="107.9" ry="22"/>
			<ellipse fill="#E6E7E8" cx="273.3" cy="877.5" rx="131.5" ry="22"/>
			<ellipse fill="#E6E7E8" cx="548.7" cy="877.5" rx="107.9" ry="22"/>
			<ellipse fill="#E6E7E8" cx="839.5" cy="877.5" rx="138.7" ry="22"/>
			<ellipse fill="#E6E7E8" cx="1137.2" cy="877.5" rx="107.9" ry="22"/>
			<g>
				<path fill="#E3322B" d="M813.4,603.1c0,0-16,12.8-18.8,36.2c-1.2,10.5,3.3,21,12.2,26.6c4.7,3,10.2,4.5,15.4,0.8
					c0,0-2.4-14.1-2.4-14.1c-0.1-0.4-4.5-2-4.9-2.3c-1.7-1.2-3.1-3.5-3.3-5.6c-0.5-6,4.3-11.8,9.5-14.2c0.4-0.2,7.6-2.5,7.7-1.6
					c0,0-2.1-14.6-2.1-14.6L813.4,603.1z"/>
				<g>
					<g>
						<path fill="#3C2415" d="M919.4,876.2l4.8,1.9c0,0,1.5,5.3-2.1,6.5c-3.6,1.3-12,4.4-19.1,1.5c-7.1-2.9-4.5-2.4-4.5-2.4
							s-0.9-4.1-4.2-3.7c-3.3,0.4-1.4,2.3-1.4,2.3s-7.9,0.1-10.5-3.7c-2.6-3.9,0-7.1,0-7.1L919.4,876.2z"/>
						<path fill="#8D5E2D" d="M880.9,854.8l0.8,18.1l2,1.7c0,0,4.4,5,9.3,4c4.9-1,4.7,2,10.8,3.3c6.2,1.3,22.4,1.8,21.1-6.8
							c-1.3-8.6-6.7-8-14.5-10.6c-7.8-2.7-10.5-16.1-10.5-16.1S881.7,844,880.9,854.8z"/>
						<ellipse fill="#3C2415" cx="895.7" cy="857.3" rx="0.8" ry="1.2"/>
						<ellipse fill="#3C2415" cx="899.1" cy="863.4" rx="0.8" ry="1.2"/>
						<ellipse fill="#3C2415" cx="904.1" cy="867.2" rx="0.8" ry="1.2"/>
						<ellipse fill="#3C2415" cx="908" cy="864.4" rx="0.8" ry="1.2"/>
						<ellipse fill="#3C2415" cx="904.2" cy="860.6" rx="0.8" ry="1.2"/>
						<ellipse fill="#3C2415" cx="901.4" cy="856.6" rx="0.8" ry="1.2"/>
						<g>
							<path fill="#3C2415" d="M897.1,868.6C897.1,868.6,897.1,868.6,897.1,868.6L897.1,868.6c-0.3,0-0.5-0.1-0.5-0.3l0,0
								c-0.1-0.4-0.1-0.8-0.1-1.3l0,0c0-3.2,2.2-7.2,2.8-9.9l0,0c-1.5,1.5-4.9,6.5-6.8,6.7l0,0c-0.7,0-1-0.7-1-1.4l0,0
								c0-0.1,0-0.1,0-0.1l0,0c0.1-2.2,1.6-4,3.6-5.4l0,0c-0.1-0.3-0.1-0.8-0.1-1.2l0,0c0-0.9,0.4-2.1,1.7-2.1l0,0
								c0.4,0,0.9,0.1,1.5,0.4l0,0c0.6,0.3,1.3,0.4,2,0.5l0,0c1.4-0.4,2.7-0.7,3.7-0.7l0,0c0.4,0,0.7,0,0.9,0.1l0,0
								c0.2,0.1,0.5,0,0.6,0.5l0,0c-0.3,0.8-0.7,0.6-1.3,0.8l0,0c-0.6,0.1-1.4,0.2-2.4,0.2l0,0c0,0-0.1,0-0.1,0l0,0
								c0,0.1,0,0.1,0,0.2l-2,7l4.2-2.3l0,0c0.1-0.1,0.3-0.1,0.4,0l0,0c0.1,0.1,0.2,0.2,0.2,0.4l-0.1,5l0,0c1.3-1.2,3.4-1.5,3.4-1.5
								l0,0c0.2,0,0.4,0.1,0.5,0.3l0,0c0,0.2-0.1,0.4-0.3,0.5l0,0c0,0-3.5,0.9-3.6,2.2l0,0.1h0l0,0c0,0,0,0,0,0l0,0
								c0,0.2-0.2,0.4-0.4,0.4l0,0c-0.2,0-0.4-0.2-0.4-0.4v0l0,0l0,0v0l0.1-5.9l-4.5,2.4l0,0c-0.1,0.1-0.3,0.1-0.5,0l0,0
								c-0.1-0.1-0.2-0.3-0.1-0.4l2.1-7.2l-0.5,0.2l0,0c0,0.1,0,0.2,0,0.2l0,0c0,0.1,0,0.2-0.1,0.4l0,0c-0.6,2.8-2.9,7.1-2.9,10.1
								l0,0c0,0.4,0,0.7,0.1,1.1l0,0C897.5,868.3,897.4,868.5,897.1,868.6L897.1,868.6z M896.2,859.5c0.9-1,1.6-2,2.3-2.7l-2.6,0.8
								l0,0c-0.1,0-0.2,0-0.3,0l0,0c0,0,0,0-0.1,0l0,0c-1.8,1.3-3.1,2.9-3.1,4.6l0,0c0,0,0,0.1,0,0.1l0,0c0.1,0.6,0.2,0.6,0.2,0.6
								l0,0C893,863,894.7,861.3,896.2,859.5L896.2,859.5z M895.9,856.3c0.9-0.5,1.9-1,2.9-1.4l0,0c-0.3-0.1-0.6-0.2-0.8-0.3l0,0
								c-0.5-0.2-0.9-0.3-1.2-0.3l0,0c-0.7,0-0.8,0.4-0.9,1.2l0,0C895.9,855.8,895.9,856.1,895.9,856.3L895.9,856.3z M898.8,855.8
								l1.8-0.6l0,0c-0.1,0-0.1,0-0.2,0l0,0C899.9,855.4,899.3,855.6,898.8,855.8L898.8,855.8z"/>
						</g>
						<g>
							<path fill="#3C2415" d="M909.2,863.7c-0.1,0-0.1,0.1-0.2,0.1l0,0c-0.1,0-0.3-0.1-0.4-0.2l0,0c-1.9-3.4-9.1-3.9-9.3-7.6l0,0
								c0-0.4,0.2-0.9,0.6-1l0,0c0,0,0-0.1,0-0.2l0,0c0-0.2,0.3-0.4,0.5-0.3l0,0c0,0.1,7.7,1.3,7.9,4.9l0,0c0,0.1,0,0.1,0,0.2l0,0
								c0,0.5-0.4,1-0.9,1l0,0c-1.9-0.1-6.2-4.9-7.2-4.8l0,0c0,0,0,0.1,0,0.2l0,0c-0.3,2.5,6.8,3.5,9.2,7.2l0,0
								C909.4,863.3,909.4,863.6,909.2,863.7L909.2,863.7z M907.5,859.3c0.2-1.7-3.5-3-5.7-3.6l0,0c2,1.4,4.7,4.1,5.6,4l0,0
								c0.1,0,0,0,0.1-0.2l0,0C907.5,859.4,907.5,859.4,907.5,859.3L907.5,859.3z"/>
						</g>
					</g>
				</g>
				<g>
					<path fill="#3C2415" d="M742.7,849.4l-5.1,1.2c0,0-2.3,5,1.1,6.8c3.4,1.8,11.2,6.2,18.6,4.3c7.4-1.8,4.8-1.7,4.8-1.7
						s1.5-3.9,4.7-3c3.2,0.9,1,2.4,1,2.4s7.8,1.3,10.9-2.1c3.1-3.4,1.1-7,1.1-7L742.7,849.4z"/>
					<path fill="#8D5E2D" d="M784,833.9l-3.5,17.8l-2.2,1.4c0,0-5.1,4.3-9.8,2.6c-4.7-1.7-4.9,1.3-11.2,1.7
						c-6.3,0.3-22.4-1.6-19.8-9.9c2.6-8.3,7.8-6.9,15.9-8.4c8.1-1.5,12.8-14.4,12.8-14.4S784.8,823.2,784,833.9z"/>
					
						<ellipse transform="matrix(0.9889 0.1484 -0.1484 0.9889 132.3255 -104.888)" fill="#3C2415" cx="769" cy="834.2" rx="0.9" ry="1.2"/>
					
						<ellipse transform="matrix(0.9888 0.1491 -0.1491 0.9888 133.7088 -104.6113)" fill="#3C2415" cx="764.8" cy="839.7" rx="0.8" ry="1.2"/>
					<path fill="#3C2415" d="M760.1,842.9c-0.1,0.6-0.5,1.1-1,1c-0.5-0.1-0.8-0.6-0.7-1.3c0.1-0.6,0.5-1.1,1-1
						C759.9,841.7,760.2,842.3,760.1,842.9z"/>
					
						<ellipse transform="matrix(0.9889 0.1485 -0.1485 0.9889 133.0327 -102.9158)" fill="#3C2415" cx="755.7" cy="839.5" rx="0.8" ry="1.2"/>
					
						<ellipse transform="matrix(0.989 0.148 -0.148 0.989 132.1345 -103.2932)" fill="#3C2415" cx="760.1" cy="836.2" rx="0.8" ry="1.2"/>
					
						<ellipse transform="matrix(0.989 0.148 -0.148 0.989 131.6446 -103.8276)" fill="#3C2415" cx="763.5" cy="832.7" rx="0.8" ry="1.2"/>
					<g>
						<path fill="#3C2415" d="M765.9,845.1c-0.2-0.1-0.3-0.3-0.2-0.5l0,0c0.1-0.3,0.2-0.7,0.3-1.1l0,0c0.5-3-1.2-7.6-1.4-10.5l0,0
							c0-0.1,0-0.3,0-0.4l0,0c0-0.1,0-0.1,0.1-0.2l0,0l-0.5-0.2l1,7.4c0,0.2,0,0.3-0.2,0.4l0,0c-0.1,0.1-0.3,0.1-0.5,0l0,0l-4.1-3.1
							l-0.8,5.9v0l0,0l0,0l0,0c0,0.2-0.2,0.4-0.5,0.4l0,0c-0.2,0-0.4-0.2-0.4-0.5l0,0c0,0,0,0,0,0l0,0h0l0-0.1
							c0.1-1.4-3.2-2.7-3.2-2.7l0,0c-0.2-0.1-0.3-0.3-0.3-0.5l0,0c0.1-0.2,0.3-0.3,0.5-0.3l0,0c0,0,2.1,0.7,3.2,2l0,0l0.7-4.9
							c0-0.2,0.1-0.3,0.2-0.3l0,0c0.1-0.1,0.3,0,0.4,0l0,0l3.8,2.9l-1-7.2c0-0.1,0-0.1,0-0.2l0,0c0,0-0.1,0-0.1,0l0,0
							c-0.9-0.1-1.7-0.4-2.3-0.6l0,0c-0.6-0.3-1-0.2-1.1-1l0,0c0.2-0.5,0.5-0.4,0.7-0.4l0,0c0.2,0,0.5,0,0.9,0.1l0,0
							c0.9,0.2,2.2,0.6,3.5,1.2l0,0c0.7,0,1.4,0,2.1-0.2l0,0c0.6-0.2,1.1-0.2,1.5-0.1l0,0c1.3,0.2,1.5,1.4,1.4,2.3l0,0
							c-0.1,0.4-0.2,0.9-0.3,1.2l0,0c1.8,1.7,3.1,3.7,2.8,5.9l0,0c0,0.1,0,0.1,0,0.1l0,0c-0.1,0.7-0.5,1.4-1.2,1.3l0,0
							c-1.8-0.4-4.5-5.8-5.7-7.6l0,0c0.3,2.7,1.8,7,1.3,10.2l0,0c-0.1,0.4-0.2,0.9-0.3,1.2l0,0C766.4,845.1,766.2,845.2,765.9,845.1
							L765.9,845.1C766,845.2,765.9,845.2,765.9,845.1L765.9,845.1z M768.2,836.3c1.1,2,2.7,3.9,3.1,3.9l0,0c0,0,0.1,0,0.3-0.6l0,0
							c0-0.1,0-0.1,0-0.1l0,0c0.3-1.7-0.8-3.4-2.4-5l0,0c0,0,0,0-0.1,0l0,0c-0.1,0-0.2,0-0.3,0l0,0l-2.4-1.2
							C766.9,834.1,767.4,835.2,768.2,836.3L768.2,836.3z M768.9,833.2c0.1-0.2,0.1-0.5,0.2-0.7l0,0c0.1-0.8,0-1.2-0.7-1.4l0,0
							c-0.3,0-0.7,0-1.2,0.1l0,0c-0.3,0.1-0.6,0.1-0.9,0.2l0,0C767.2,831.9,768.1,832.5,768.9,833.2L768.9,833.2z M766.2,832.3
							c-0.5-0.3-1-0.6-1.5-0.8l0,0c0,0-0.1,0-0.2,0l0,0L766.2,832.3L766.2,832.3z"/>
					</g>
					<g>
						<path fill="#3C2415" d="M754.7,838.6c-0.2-0.2-0.2-0.4-0.1-0.6l0,0c2.9-3.3,10.1-3.2,10.2-5.7l0,0c0-0.1,0-0.2,0-0.2l0,0
							c-1-0.2-5.9,3.8-7.8,3.7l0,0c-0.5,0-0.9-0.6-0.8-1.1l0,0c0-0.1,0-0.2,0-0.2l0,0c0.8-3.5,8.5-3.5,8.5-3.6l0,0
							c0.2,0,0.4,0.2,0.4,0.4l0,0c0,0.1,0,0.1,0,0.2l0,0c0.4,0.2,0.5,0.7,0.5,1.1l0,0c-0.8,3.6-8,3.1-10.4,6.2l0,0
							c-0.1,0.1-0.2,0.2-0.4,0.1l0,0C754.9,838.7,754.8,838.6,754.7,838.6L754.7,838.6z M757.1,834.5c0,0.1,0,0.1,0,0.1l0,0
							c0,0.2,0,0.2,0.1,0.2l0,0c0.8,0.2,3.9-2.1,6.1-3.1l0,0C761,832,757.1,832.8,757.1,834.5L757.1,834.5z"/>
					</g>
				</g>
				<path fill="#3C2415" d="M837.4,711.2c0,0-41.2,41.6-48.7,50.9c-7.5,9.3-20.4,66.3-20.4,66.3s5.3,8.1,11.1,3.7
					c5.8-4.4,16.8-44.7,26.1-60.7c9.3-15.9,36.8-32.3,56.3-35c19.5-2.7,22.6,115.6,22.6,115.6s6.6,6.6,11.1-1.8
					c4.4-8.4,11.1-126.3,9.3-148C903,680.7,837.4,711.2,837.4,711.2z"/>
				<path fill="#E3322B" d="M859.1,589.4c-6,0.4-11.8,0-17.8,1.1c-10.8,2-22.3,6.7-29.7,14.2l5.3,23.3c2.6-1.1,3.1,1,4.1,2.9
					c3.4,6.4,2.4,13.1,3.3,20c1,7.7,1.6,15.5,2.1,23.3c0.7,12.4,1.1,24.8,1.2,37.2c0,0.5-0.3,2.2,0,2.6c0,0,10.2,15.1,40.8,9.7
					c30.6-5.3,37.7-22.2,37.7-22.2S905.2,586.3,859.1,589.4z"/>
				<path fill="#CCCCCC" d="M836.1,592.5c0,0-2.7,4.7-2.4,7.8c0.3,3,2.7,9.4,2.7,9.4l9.9-9.7c0,0,2.7,4.2,5.8,3.6
					c3.1-0.6,5.1-2.8,5.1-2.8s7.5,8.3,8.5,8.3c1,0,7.2-8,6.5-12.2c-0.7-4.2-4.1-8.9-12.9-8.9C850.4,588,842.3,585.8,836.1,592.5z"/>
				<path fill="#FEC986" d="M858.5,592.1c0-3.1-2.1-8.3-2.1-8.3l-4.4-0.4v-0.1l-0.3,0l-0.3,0v0.1l-4.4,0.4c0,0-2.1,5.2-2.1,8.3
					c0,2.6,4.8,3.9,6.4,4.2v0.1c0,0,0.1,0,0.3-0.1c0.2,0,0.3,0.1,0.3,0.1v-0.1C853.8,596,858.5,594.7,858.5,592.1z"/>
				<ellipse fill="#FEC986" cx="832" cy="562.3" rx="2.6" ry="5.5"/>
				<ellipse fill="#FEC986" cx="871.3" cy="562.3" rx="2.6" ry="5.5"/>
				<path fill="#1A1A1A" d="M833.9,568.4c0,0-3.5-11.9-4.4-19.1c-1-7.2-1.5-13.2-0.4-15.9c1.1-2.8,2.9-1.7,2.9-1.7l-1.8-2.4l2.8,0.3
					c0,0,1.5-3.6,11.5-5.5c10-1.9,23.1-0.3,26.5,4.6c3.3,4.8,5.4,5,5.4,5l-2.4,1.2l2.4,2.5l-1.7,0.4l1.1,2.6l-4.4,22.6L833.9,568.4z
					"/>
				<path fill="#FEC986" d="M871.5,541.6c-3.7,2.9-6.9,3.3-6.9,3.3l0.4-3.1l-3.7,2.7c0,0,1.5-4.2-0.6-3.3c-1.8,0.7-7.4,1.1-8.9,1.2
					c-1.6-0.1-7.1-0.5-8.9-1.2c-2.1-0.8-0.6,3.3-0.6,3.3l-3.7-2.7l0.4,3.1c0,0-3.1-0.4-6.9-3.3c0,0-1.5,28,2.7,36.1
					c3.9,7.6,12.1,8.6,16.6,8.7v0c0.1,0,0.3,0,0.4,0c0.1,0,0.3,0,0.4,0v0c4.4-0.1,12.7-1.1,16.6-8.7
					C872.9,569.7,871.5,541.6,871.5,541.6z"/>
				<path fill="#1A1A1A" d="M856.9,551c0,0,0.7,1.3,1.8,1.3c1.1,0,7-0.9,8.8,0.7c0,0-1.3-2.2-3.6-2.5
					C861.5,550.2,856.9,551,856.9,551z"/>
				<path fill="#1A1A1A" d="M845.9,551.6c0,0-0.7,1.3-1.8,1.3c-1.1,0-7-0.9-8.8,0.7c0,0,1.3-2.2,3.6-2.5
					C841.3,550.8,845.9,551.6,845.9,551.6z"/>
				<path fill="#1A1A1A" d="M867.6,561c0,0-0.6,0.7-1.7,0.7s-2.4-3.3-4.8-3.3c-2.4,0-2.9,3.1-2.9,3.1l-1.7-0.2c0,0,0.8-4.4,4.5-4.3
					C864.8,557,867.6,561,867.6,561z"/>
				<path fill="#1A1A1A" d="M834.9,561c0,0,0.6,0.7,1.7,0.7c1.1,0,2.4-3.3,4.8-3.3c2.4,0,2.9,3.1,2.9,3.1l1.7-0.2
					c0,0-0.8-4.4-4.5-4.3C837.7,557,834.9,561,834.9,561z"/>
				<path fill="#1A1A1A" d="M840.2,573.2c0,0,5.6,2,12.2,1.7c6.6-0.4,11.1-2.6,11.1-2.6s-1.9,9.3-11.4,9.9
					C842.7,582.7,840.2,573.2,840.2,573.2z"/>
				<path fill="#FFFFFF" d="M843.6,574.9l0.2,1c0,0,3,2,8.5,1.6c5.5-0.5,7.3-1.2,7.3-1.2l-0.2-1.7
					C859.4,574.6,852.6,578.1,843.6,574.9z"/>
				<path fill="#F26831" d="M847.8,580.4c0,0,3.2-1.8,5.7-1.3c2.5,0.5,3,0.5,3,0.5S853.6,582.1,847.8,580.4z"/>
				<path fill="#E3322B" d="M879,597c0,0,33.9,31.6,23.6,62.5c0,0-7.2,13.1-27,7.3l14.5-18.4L879,597z"/>
				<g>
					<path fill="#448CCB" d="M813.3,681.5c0,0,2.7-34.1,0-46.8c0,0,22.4,13.6,31,23.4v40.8C844.3,698.8,825.6,684,813.3,681.5z"/>
					<path fill="#3772A6" d="M844.3,658c0,0,10.7-10.1,30-21.3c0,0-2.3,21.7-3,40.6l-27,21.4V658z"/>
					<path fill="#FEC986" d="M823.3,663.4c1.7-0.2,3.9-2,2.6-3.8c-0.6-0.7-2-1.2-2.8-1.5c0.9-0.3,1.9-0.3,2.3-1.4
						c0.4-1.1-0.3-2.4-1.1-3.1c-0.8-0.7-1.8-0.5-2.8-0.6c1.3-0.3,2.8-0.9,2-2.6c-1.7-3.6-7.1-1.6-9.9-0.9c0,0,0,0-0.1,0
						c-3.4,0.9-5.4,3.6-6.1,6.9c-0.5,2.5,0.2,6.2,1.2,8.5c0.9,2.2,2.8,4.3,5.1,5.3c2.7,1.1,6.8-0.3,9.6-0.7c1.7-0.3,3.5-0.9,3.5-2.9
						C826.7,664.9,825,663.3,823.3,663.4z"/>
					<path fill="#FEC986" d="M864,663.4c-1.7-0.2-3.9-2-2.6-3.8c0.6-0.7,2-1.2,2.8-1.5c-0.9-0.3-1.9-0.3-2.3-1.4
						c-0.4-1.1,0.3-2.4,1.1-3.1c0.8-0.7,1.8-0.5,2.8-0.6c-1.3-0.3-2.8-0.9-2-2.6c1.7-3.6,7.1-1.6,9.9-0.9c0,0,0,0,0.1,0
						c3.4,0.9,5.4,3.6,6.1,6.9c0.5,2.5-0.2,6.2-1.2,8.5c-0.9,2.2-2.8,4.3-5.1,5.3c-2.7,1.1-6.8-0.3-9.6-0.7
						c-1.7-0.3-3.5-0.9-3.5-2.9C860.6,664.9,862.3,663.3,864,663.4z"/>
				</g>
			</g>
			<g>
				<path fill="#EC9123" d="M844,182.3c-0.7-0.7-12.5,11-13.2,11.8c-9.7,10.2-17.6,22.2-23,35.2c-3.5,8.4-6.9,17.5-6.6,26.7
					c0.2,5.8,3.6,11.8,9.2,13.7c4.8,1.6,4.8-1.1,6.5-5c1.7-4.2,3.6-8.2,5.4-12.4c0,0,7.5-42.9,33.5-37.8
					C881.8,219.6,844,182.3,844,182.3z"/>
				<g>
					<g>
						<path fill="#3C2415" d="M821,461.2l-5,1.5c0,0-1.9,5.1,1.6,6.7c3.5,1.6,11.6,5.3,18.9,3c7.3-2.4,4.6-2,4.6-2s1.2-4,4.5-3.3
							c3.3,0.7,1.2,2.4,1.2,2.4s7.9,0.7,10.8-2.9c2.9-3.7,0.6-7.1,0.6-7.1L821,461.2z"/>
						<path fill="#8D5E2D" d="M861,442.8l-2.2,18l-2.1,1.5c0,0-4.8,4.7-9.6,3.3c-4.8-1.4-4.8,1.7-11.1,2.5
							c-6.3,0.8-22.5,0.1-20.5-8.4c2-8.5,7.3-7.4,15.2-9.5c7.9-2.1,11.7-15.3,11.7-15.3S861,432,861,442.8z"/>
						<path fill="#3C2415" d="M846.9,444.2c0,0.6-0.5,1.1-0.9,1.1c-0.5,0-0.8-0.6-0.8-1.2c0-0.6,0.5-1.1,0.9-1.1
							C846.6,443,846.9,443.5,846.9,444.2z"/>
						<path fill="#3C2415" d="M843.1,450c0,0.6-0.5,1.1-0.9,1.1c-0.5,0-0.8-0.6-0.8-1.2c0-0.6,0.5-1.1,0.9-1.1
							C842.8,448.8,843.1,449.4,843.1,450z"/>
						
							<ellipse transform="matrix(0.9971 7.614690e-002 -7.614690e-002 0.9971 36.9567 -62.4142)" fill="#3C2415" cx="836.9" cy="453.4" rx="0.8" ry="1.2"/>
						
							<ellipse transform="matrix(0.9972 7.524265e-002 -7.524265e-002 0.9972 36.2479 -61.4175)" fill="#3C2415" cx="833.2" cy="450.4" rx="0.8" ry="1.2"/>
						<path fill="#3C2415" d="M838.2,446.9c0,0.6-0.5,1.1-0.9,1.1c-0.5,0-0.8-0.6-0.8-1.2c0-0.6,0.5-1.1,0.9-1.1
							C837.9,445.7,838.3,446.2,838.2,446.9z"/>
						
							<ellipse transform="matrix(0.9972 7.528930e-002 -7.528930e-002 0.9972 35.7389 -62.0192)" fill="#3C2415" cx="840.4" cy="443" rx="0.8" ry="1.2"/>
						<g>
							<path fill="#3C2415" d="M843.8,455.3c-0.2-0.1-0.3-0.3-0.3-0.5l0,0c0.1-0.3,0.2-0.7,0.2-1.1l0,0c0.2-3-1.8-7.5-2.1-10.3l0,0
								c0-0.1,0-0.3,0-0.4l0,0c0-0.1,0-0.1,0.1-0.2l0,0l-0.5-0.2l1.5,7.3c0,0.2,0,0.3-0.2,0.4l0,0c-0.1,0.1-0.3,0.1-0.5,0l0,0
								l-4.3-2.8l-0.4,5.9l0,0l0,0l0,0v0c0,0.2-0.2,0.4-0.4,0.4l0,0c-0.2,0-0.4-0.2-0.4-0.4l0,0c0,0,0,0,0,0l0,0h0l0-0.1
								c0-1.4-3.4-2.5-3.4-2.5l0,0c-0.2-0.1-0.4-0.3-0.3-0.5l0,0c0.1-0.2,0.3-0.4,0.5-0.3l0,0c0,0,2.1,0.5,3.3,1.8l0,0l0.3-5
								c0-0.2,0.1-0.3,0.2-0.3l0,0c0.1-0.1,0.3-0.1,0.4,0l0,0l4,2.6l-1.5-7.1c0-0.1,0-0.1,0-0.2l0,0c0,0-0.1,0-0.1,0l0,0
								c-0.9-0.1-1.7-0.2-2.3-0.4l0,0c-0.6-0.3-1-0.1-1.2-0.9l0,0c0.1-0.5,0.4-0.4,0.6-0.5l0,0c0.2,0,0.5,0,0.9,0l0,0
								c0.9,0.1,2.2,0.4,3.6,1l0,0c0.7,0,1.4-0.2,2.1-0.4l0,0c0.6-0.2,1.1-0.3,1.5-0.2l0,0c1.3,0.1,1.6,1.3,1.6,2.2l0,0
								c0,0.4-0.1,0.9-0.2,1.2l0,0c1.9,1.5,3.3,3.5,3.2,5.6l0,0c0,0.1,0,0.1,0,0.1l0,0c-0.1,0.8-0.4,1.4-1.1,1.4l0,0
								c-1.9-0.3-4.9-5.5-6.3-7.2l0,0c0.5,2.7,2.3,6.9,2.1,10.1l0,0c0,0.4-0.1,0.9-0.2,1.3l0,0C844.2,455.2,844,455.3,843.8,455.3
								L843.8,455.3C843.8,455.3,843.8,455.3,843.8,455.3L843.8,455.3z M845.4,446.3c1.3,1.9,2.9,3.7,3.4,3.7l0,0c0,0,0.1,0,0.2-0.6
								l0,0c0-0.1,0-0.1,0-0.1l0,0c0.1-1.7-1-3.4-2.8-4.8l0,0c0,0,0,0-0.1,0l0,0c-0.1,0-0.2,0-0.3,0l0,0l-2.5-1
								C843.9,444.2,844.6,445.3,845.4,446.3L845.4,446.3z M845.9,443.1c0.1-0.2,0.1-0.5,0.1-0.7l0,0c0-0.8-0.1-1.2-0.8-1.3l0,0
								c-0.3,0-0.7,0-1.2,0.2l0,0c-0.3,0.1-0.6,0.2-0.8,0.2l0,0C844.1,442,845,442.5,845.9,443.1L845.9,443.1z M843.1,442.5
								c-0.5-0.3-1-0.5-1.6-0.7l0,0c-0.1,0-0.1,0-0.2,0l0,0L843.1,442.5L843.1,442.5z"/>
						</g>
						<g>
							<path fill="#3C2415" d="M832.1,449.5c-0.2-0.1-0.2-0.4-0.1-0.6l0,0c2.7-3.5,9.8-4,9.7-6.5l0,0c0-0.1,0-0.2,0-0.2l0,0
								c-1-0.2-5.6,4.2-7.6,4.2l0,0c-0.5,0-0.9-0.5-0.9-1l0,0c0-0.1,0-0.2,0-0.3l0,0c0.5-3.6,8.2-4.1,8.3-4.3l0,0
								c0.2,0,0.4,0.1,0.5,0.4l0,0c0,0.1,0,0.1,0,0.2l0,0c0.4,0.2,0.6,0.6,0.5,1.1l0,0c-0.5,3.7-7.7,3.7-9.9,6.9l0,0
								c-0.1,0.1-0.2,0.2-0.4,0.2l0,0C832.3,449.6,832.2,449.6,832.1,449.5L832.1,449.5z M834.2,445.3c0,0.1,0,0.1,0,0.1l0,0
								c0.1,0.2,0,0.2,0.1,0.2l0,0c0.9,0.2,3.7-2.4,5.9-3.6l0,0C837.9,442.6,834.1,443.6,834.2,445.3L834.2,445.3z"/>
						</g>
					</g>
				</g>
				<g>
					<path fill="#3C2415" d="M910.5,467.8l2.8,4.4c0,0-1.9,5.1-5.6,4.1c-3.7-1.1-12.3-3.5-16.3-10c-4-6.5-2.2-4.6-2.2-4.6
						s1.6-3.8-1.3-5.4c-2.9-1.6-2.5,1-2.5,1s-6.5-4.5-6.3-9.2c0.2-4.6,4.1-5.8,4.1-5.8L910.5,467.8z"/>
					<path fill="#8D5E2D" d="M891.9,427.9l-10,15.1l0.6,2.5c0,0,0.6,6.7,5.2,8.7c4.5,2.1,2.6,4.4,6.8,9c4.3,4.7,17.1,14.6,21.1,6.8
						c4-7.8-0.8-10.4-5.5-17.1c-4.7-6.7,1-19.2,1-19.2S898.9,419.6,891.9,427.9z"/>
					<path fill="#3C2415" d="M901.8,438.1c-0.4,0.5-0.4,1.2,0,1.4c0.4,0.3,1,0.1,1.4-0.4c0.4-0.5,0.4-1.2,0-1.4
						C902.7,437.4,902.1,437.6,901.8,438.1z"/>
					<path fill="#3C2415" d="M900.9,445c-0.4,0.5-0.4,1.2,0,1.4c0.4,0.3,1,0.1,1.4-0.4c0.4-0.5,0.4-1.2,0-1.4
						C901.9,444.2,901.2,444.4,900.9,445z"/>
					<path fill="#3C2415" d="M902.7,451c-0.4,0.5-0.4,1.2,0,1.4c0.4,0.3,1,0.1,1.4-0.4c0.4-0.5,0.4-1.2,0-1.4
						C903.7,450.3,903,450.5,902.7,451z"/>
					<path fill="#3C2415" d="M907.5,451.1c-0.4,0.5-0.4,1.2,0,1.4c0.4,0.3,1,0.1,1.4-0.4c0.4-0.5,0.4-1.2,0-1.4
						C908.5,450.4,907.9,450.6,907.5,451.1z"/>
					<path fill="#3C2415" d="M906.6,445.7c-0.4,0.5-0.4,1.2,0,1.4c0.4,0.3,1,0.1,1.4-0.4c0.4-0.5,0.4-1.2,0-1.4
						C907.6,445,907,445.2,906.6,445.7z"/>
					<path fill="#3C2415" d="M906.7,440.8c-0.4,0.5-0.4,1.2,0,1.4c0.4,0.3,1,0.1,1.4-0.4c0.4-0.5,0.4-1.2,0-1.4
						C907.7,440.1,907.1,440.3,906.7,440.8z"/>
					<g>
						<path fill="#3C2415" d="M897,448.5C896.9,448.5,896.9,448.5,897,448.5L897,448.5c-0.2-0.2-0.3-0.4-0.2-0.5l0,0
							c0.2-0.4,0.4-0.8,0.6-1.1l0,0c1.9-2.6,6-4.6,8.1-6.4l0,0c-2.1,0.4-7.8,2.4-9.4,1.4l0,0c-0.6-0.4-0.4-1.1,0-1.8l0,0
							c0,0,0.1-0.1,0.1-0.1l0,0c1.3-1.7,3.6-2.3,6.1-2.2l0,0c0.1-0.3,0.3-0.7,0.6-1.1l0,0c0.5-0.7,1.5-1.4,2.6-0.7l0,0
							c0.3,0.2,0.7,0.6,1,1.2l0,0c0.4,0.6,0.8,1.1,1.3,1.6l0,0c1.4,0.5,2.6,1.1,3.4,1.6l0,0c0.3,0.2,0.5,0.4,0.7,0.6l0,0
							c0.1,0.2,0.4,0.3,0.2,0.8l0,0c-0.7,0.5-0.9,0.1-1.5-0.1l0,0c-0.6-0.3-1.3-0.7-2-1.2l0,0c0,0-0.1,0-0.1-0.1l0,0
							c0,0.1-0.1,0.1-0.1,0.2l-5.8,4.5l4.8,0.6l0,0c0.1,0,0.3,0.1,0.3,0.3l0,0c0.1,0.1,0,0.3-0.1,0.4l-3,4l0,0
							c1.7-0.2,3.6,0.8,3.7,0.8l0,0c0.2,0.1,0.3,0.3,0.2,0.5l0,0c-0.1,0.2-0.3,0.3-0.6,0.2l0,0c0,0-3.3-1.4-4.2-0.3l-0.1,0.1l0,0
							l0,0c0,0,0,0,0,0l0,0c-0.1,0.2-0.4,0.2-0.6,0.1l0,0c-0.2-0.1-0.2-0.4-0.1-0.6l0,0l0,0l0,0l0,0l3.5-4.7l-5.1-0.6l0,0
							c-0.2,0-0.3-0.1-0.4-0.3l0,0c0-0.2,0-0.3,0.2-0.4l5.9-4.6l-0.5-0.2l0,0c0,0.1-0.1,0.2-0.1,0.2l0,0c-0.1,0.1-0.1,0.2-0.3,0.3
							l0,0c-2.1,1.9-6.5,4.1-8.3,6.5l0,0c-0.2,0.3-0.4,0.6-0.6,1l0,0C897.4,448.5,897.2,448.6,897,448.5L897,448.5z M901.5,440.6
							c1.3-0.3,2.5-0.7,3.4-0.9l-2.6-0.8l0,0c-0.1,0-0.2-0.1-0.2-0.2l0,0c0,0,0,0,0-0.1l0,0c-2.2,0-4.2,0.5-5.2,1.9l0,0
							c0,0,0,0.1-0.1,0.1l0,0c-0.3,0.5-0.2,0.6-0.2,0.6l0,0C896.8,441.6,899.3,441.2,901.5,440.6L901.5,440.6z M903.2,437.9
							c1.1,0.1,2.1,0.3,3.1,0.5l0,0c-0.2-0.2-0.3-0.5-0.5-0.7l0,0c-0.3-0.5-0.6-0.8-0.8-0.9l0,0c-0.6-0.4-0.9-0.1-1.4,0.5l0,0
							C903.4,437.5,903.3,437.7,903.2,437.9L903.2,437.9z M905.8,439.2l1.8,0.6l0,0c0,0-0.1-0.1-0.1-0.1l0,0
							C906.9,439.5,906.3,439.3,905.8,439.2L905.8,439.2z"/>
					</g>
					<g>
						<path fill="#3C2415" d="M909.5,451.7c-0.1,0-0.1,0-0.2-0.1l0,0c-0.1-0.1-0.2-0.2-0.2-0.4l0,0c0.5-3.9-5-8.5-3.1-11.7l0,0
							c0.3-0.4,0.7-0.6,1.1-0.5l0,0c0,0,0.1-0.1,0.1-0.1l0,0c0.2-0.2,0.4-0.1,0.6,0l0,0c-0.1,0.1,5.5,5.5,3.5,8.6l0,0
							c0,0-0.1,0.1-0.2,0.2l0,0c-0.3,0.4-0.9,0.5-1.3,0.2l0,0c-1.5-1.2-2.2-7.6-3-8.1l0,0c0,0-0.1,0.1-0.1,0.2l0,0
							c-1.7,1.9,3.4,6.8,3.2,11.2l0,0C910,451.5,909.8,451.7,909.5,451.7L909.5,451.7z M910.7,447.1c1.1-1.2-1.1-4.5-2.5-6.3l0,0
							c0.8,2.3,1.4,6.1,2.2,6.5l0,0c0.1,0,0,0,0.2-0.1l0,0C910.7,447.2,910.7,447.2,910.7,447.1L910.7,447.1z"/>
					</g>
				</g>
				<path fill="#3C2415" d="M918.9,288.8c0,0,21.1,72.7,20,84.6c-1.1,11.9-32,61.6-32,61.6s-9.5,2.1-10.5-5.1
					c-1-7.2,17.1-36.3,21.6-54.2c5.5-13-9.8-45.3-29-49.4c-19.2-4.1-31.3,113.6-31.3,113.6s-7.1,6.1-10.9-2.6
					c-3.8-8.7-1.5-126.7,1.9-148.3C852.2,267.5,918.9,288.8,918.9,288.8z"/>
				<path fill="#EC9123" d="M908.3,187.3c-5.3-6.7-16.1-11.4-24.8-11.5c-11.6-0.1-30.5-3-39.5,6.5c-6.8,7.2-5.4,22.5-3.2,31.2
					c2.1,8.3,3.3,16.1,3.6,24.8c0.7,18.2-0.2,36.6-1.4,54.8c-0.1,0.9-0.7,3.6-0.3,4.4c0,0,9,15.8,39.9,12.8
					c30.9-3,39.2-19.2,39.2-19.2S931.1,216,908.3,187.3z"/>
				<path fill="#CCCCCC" d="M860.3,173.9c0,0-3.1,4.5-3,7.6c0.1,3.1,2,9.6,2,9.6l10.6-8.9c0,0,2.4,4.3,5.5,4
					c3.1-0.3,5.3-2.4,5.3-2.4s6.8,8.9,7.9,8.9c1,0.1,7.7-7.5,7.4-11.7c-0.4-4.2-3.4-9.1-12.2-9.8
					C874.9,170.6,866.9,167.8,860.3,173.9z"/>
				<path fill="#FEC986" d="M882.6,175.3c0.2-3.1-1.4-8.4-1.4-8.4l-4.3-0.7l0-0.1l-0.3,0l-0.3,0l0,0.1l-4.4,0c0,0-2.5,5-2.7,8.1
					c-0.2,2.6,4.5,4.2,6.1,4.7l0,0.1c0,0,0.1,0,0.3,0c0.2,0.1,0.3,0.1,0.3,0.1l0-0.1C877.6,178.8,882.4,177.9,882.6,175.3z"/>
				
					<ellipse transform="matrix(0.9971 7.574020e-002 -7.574020e-002 0.9971 13.3363 -64.6068)" fill="#FEC986" cx="858.4" cy="143.5" rx="2.6" ry="5.5"/>
				
					<ellipse transform="matrix(0.9971 7.570999e-002 -7.570999e-002 0.9971 13.6681 -67.5418)" fill="#FEC986" cx="897.7" cy="146.5" rx="2.6" ry="5.5"/>
				<path fill="#FEC986" d="M899.4,126.3c0-0.2,0.1-0.5,0.1-0.7c0.6-7.3-7.8-13.9-18.7-14.7c-10.9-0.8-20.2,4.4-20.7,11.7
					c0,0.2,0,0.3,0,0.5c-0.1,1-3.5,27.9,0,36.2c3.3,7.9,11.5,9.5,15.9,9.9l0,0c0.1,0,0.3,0,0.4,0c0.1,0,0.3,0,0.4,0l0,0
					c4.4,0.2,12.7-0.1,17.2-7.4C898.4,154.5,899.3,129.5,899.4,126.3z"/>
				<path fill="#603913" d="M899.5,125.6c0.6-7.3-7.8-13.9-18.7-14.7c-10.9-0.8-20.2,4.4-20.7,11.7c0,0.2,0,0.3,0,0.5
					c-0.1,0.5-0.9,7-1.3,14.5l1.9,2.2c0,0,2.9-13.8,3.4-14.7c0.5-0.9,7,1.4,17,2.1c10,0.8,14.7-0.7,14.7-0.7l1.8,15.3l0.9-0.5
					c0.7-7.1,0.9-13.6,1-15.1C899.4,126.1,899.5,125.8,899.5,125.6z"/>
				<g>
					<path fill="#FFFFFF" d="M872.7,140.9c0,0-1.5-1.8-4.3-1.4c-2.7,0.4-5.7,3.1-4.6,4.4c1,1.3,3.4,3,6.6,2.6c3.2-0.4,4-2.7,3.9-3.1
						C874.2,143.1,872.7,140.9,872.7,140.9z"/>
					<path fill="#1A1A1A" d="M868.9,146.2c-2.6-0.2-4.6-1.7-5-3.5c-0.1,0.2-0.1,0.5-0.2,0.8c-0.2,2.1,3.1,3.2,5.2,3.4
						c2.1,0.2,5.2-0.4,5.4-2.6c0-0.3,0-0.5,0-0.8C873.7,145.2,871.5,146.4,868.9,146.2z"/>
					<path fill="#1A1A1A" d="M865,141.4c0,0,1.7-1.4,4.1-1.4c2.4,0.1,4.4,2.3,4.7,3.1c0.3,0.7,0.3,1.3,0.3,1.3l0.3-0.9
						c0,0-0.3-3.5-3.7-4.2C867.3,138.6,865,141.4,865,141.4z"/>
					<path fill="#1A1A1A" d="M872.3,143.9c-0.7-0.1-1.2-0.7-1.1-1.3c0-0.5,0.4-0.9,0.8-1c-0.2-0.1-0.4-0.2-0.7-0.2
						c-1.1-0.1-2.1,0.8-2.2,1.9c-0.1,1.1,0.8,2.1,1.9,2.2c1.1,0.1,2.1-0.7,2.2-1.8C872.9,143.8,872.6,143.9,872.3,143.9z"/>
					<path fill="#1A1A1A" d="M873.6,140.2c0,0,1.3,2.6,0.2,4.8l0.6-0.7C874.4,144.3,875,141.7,873.6,140.2z"/>
				</g>
				<g>
					<path fill="#FFFFFF" d="M885.8,141.2c0,0,1.8-1.5,4.4-0.7c2.6,0.8,5.1,3.9,3.9,5.1c-1.2,1.2-3.8,2.4-6.9,1.6
						c-3.1-0.9-3.5-3.3-3.4-3.6C884,143.1,885.8,141.2,885.8,141.2z"/>
					<path fill="#1A1A1A" d="M888.8,147c2.6,0.2,4.8-1,5.4-2.7c0,0.3,0.1,0.5,0,0.8c-0.2,2.1-3.6,2.7-5.7,2.5
						c-2.1-0.2-5.1-1.2-4.9-3.3c0-0.3,0.1-0.5,0.2-0.8C884.2,145.3,886.2,146.8,888.8,147z"/>
					<path fill="#1A1A1A" d="M893.4,142.8c0,0-1.4-1.7-3.8-2c-2.4-0.3-4.7,1.6-5.1,2.3c-0.4,0.7-0.5,1.2-0.5,1.2l-0.2-0.9
						c0,0,0.8-3.4,4.2-3.6C891.5,139.8,893.4,142.8,893.4,142.8z"/>
					<path fill="#1A1A1A" d="M889.7,144.5c0.7,0.1,1.3-0.5,1.3-1.1c0-0.5-0.2-0.9-0.6-1.2c0.2-0.1,0.5-0.1,0.7-0.1
						c1.1,0.1,2,1.1,1.9,2.2c-0.1,1.1-1.1,2-2.2,1.9c-1.1-0.1-1.9-1-1.9-2.1C889.1,144.3,889.4,144.4,889.7,144.5z"/>
					<path fill="#1A1A1A" d="M885,140.3c0,0-1.6,2.4-0.9,4.7l-0.5-0.8C883.7,144.3,883.5,141.6,885,140.3z"/>
				</g>
				<path fill="#1A1A1A" d="M887.1,158.5c0,0-5.1,2.1-10.2,0.8c-5.2-1.3-7.2-4.9-7.2-4.9s-3.1,5.6,0.8,9c3.9,3.3,12.3,2.8,12.9,2.6
					C883.9,165.8,887.1,158.5,887.1,158.5z"/>
				<path fill="#FFFFFF" d="M883.8,160.7c0,0-7.6,2.2-12-2.9l-0.2,1.3c0,0,2.2,2.5,5.5,3.2c3.3,0.7,5.5,0.1,5.5,0.1L883.8,160.7z"/>
				<path fill="#1A1A1A" d="M865.5,135.6c0,0,2-1.5,3.2-1.5c1.3,0,4.1,0.7,4.7,0.7c0.6,0,1.5,1.4,0.7,1.6
					C873.3,136.6,868.9,134.9,865.5,135.6z"/>
				<path fill="#1A1A1A" d="M893.8,136c0,0-1.9-1.6-3.2-1.6c-1.3-0.1-4.2,0.5-4.7,0.5c-0.6,0-1.6,1.3-0.8,1.6
					C886,136.7,890.4,135.2,893.8,136z"/>
				<path fill="#EC9123" d="M929,219.6c-2.8-9.5-21.2-33.5-21.2-33.5s-3.3-4.8-7.5-5.2v18.6c9.2,9.4,27,36.4,11.9,49
					c-17.3,14.4-52.7,9.3-57.2,11.2c-4.5,1.9-4.4,12.5,2.1,14.2c6.5,1.7,52.3-1.4,66.6-14.6C938.1,246,931.8,229.1,929,219.6z"/>
				<g>
					<path fill="#448CCB" d="M814.5,285.3c0,0,2.7-34.1,0-46.8c0,0,22.4,13.6,31,23.4v40.8C845.5,302.6,826.9,287.7,814.5,285.3z"/>
					<path fill="#3772A6" d="M845.5,261.8c0,0,10.7-10.1,30-21.3c0,0-2.3,21.7-3,40.6l-27,21.4V261.8z"/>
					<path fill="#FEC986" d="M824.5,267.2c1.7-0.2,3.9-2,2.6-3.8c-0.6-0.7-2-1.2-2.8-1.5c0.9-0.3,1.9-0.3,2.3-1.4
						c0.4-1.1-0.3-2.4-1.1-3.1c-0.8-0.7-1.8-0.5-2.8-0.6c1.3-0.3,2.8-0.9,2-2.6c-1.7-3.6-7.1-1.6-9.9-0.9c0,0,0,0-0.1,0
						c-3.4,0.9-5.4,3.6-6.1,6.9c-0.5,2.5,0.2,6.2,1.2,8.5c0.9,2.2,2.8,4.3,5.1,5.3c2.7,1.1,6.8-0.3,9.6-0.7c1.7-0.3,3.5-0.9,3.5-2.9
						C827.9,268.6,826.2,267,824.5,267.2z"/>
					<path fill="#FEC986" d="M865.2,267.2c-1.7-0.2-3.9-2-2.6-3.8c0.6-0.7,2-1.2,2.8-1.5c-0.9-0.3-1.9-0.3-2.3-1.4
						c-0.4-1.1,0.3-2.4,1.1-3.1c0.8-0.7,1.8-0.5,2.8-0.6c-1.3-0.3-2.8-0.9-2-2.6c1.7-3.6,7.1-1.6,9.9-0.9c0,0,0,0,0.1,0
						c3.4,0.9,5.4,3.6,6.1,6.9c0.5,2.5-0.2,6.2-1.2,8.5c-0.9,2.2-2.8,4.3-5.1,5.3c-2.7,1.1-6.8-0.3-9.6-0.7
						c-1.7-0.3-3.5-0.9-3.5-2.9C861.8,268.6,863.5,267,865.2,267.2z"/>
				</g>
			</g>
			<g>
				<path fill="#EC9123" d="M519,625.6c0,0-24.8,21.6-31.6,46.7c0,0-4.3,18.5,10.3,22l3.5-14.8c0,0,8.1-26.2,29.9-23.3L519,625.6z"
					/>
				<path fill="#EC9123" d="M574.1,637.9c-1.1-5.6-2-8.8-6.7-11.9c-5.4-3.7-11.4-6.7-17.6-9.1l-11,4.8c0,0,20.1,10.5,20.1,32.5
					c0,19-7.5,36.6-24.4,46.3v18.3c1.8-0.3,3.6-0.8,5.3-1.4c13.9-5.1,22.9-18.7,28.5-31.8c3-7,5.3-14.3,6.9-21.7
					C576.9,655.6,575.8,646.3,574.1,637.9z"/>
				<path fill="#0D0D0D" d="M516.4,595.8c0,0,4.8,19.1,8,25.7c3.2,6.6,2.7,2.5,2.7,2.5l29.2-3.9l2.2-22.9l-5.8-14.2
					C552.6,583,515.3,580.3,516.4,595.8z"/>
				<path fill="#6A4232" d="M494.8,844.9l-9.7-1.2c0,0-6.5,8.9,2.4,17.6c8.9,8.7,33.3,10.7,59.2,3.7c25.9-7,41.2-17.4,41.2-17.4
					L494.8,844.9z"/>
				<g>
					<path fill="#3C2415" d="M502.4,876.3c0,0-4.3,3.5-3,7.3c1.3,3.9,1.7,2.9,1.7,2.9s3.2,1.4,10.4,0.6c7.1-0.8,10-6.5,10-6.5
						l0.2-1.8l1-0.3l0.4,1.9c0,0,3.9-0.3,5.4-1.4c1.6-1.1,1.9-3,1.9-3l-0.6-3.4L502.4,876.3z"/>
					<path fill="#FEC986" d="M507.3,882.7c0,0-2.9,1.6-4.5,1.3c-1.6-0.2-1.4-1.1-1.4-1.1s-1.2,1.2-1.9-0.7c-0.6-1.9,1.4-4.6,3-4.7
						C504.2,877.5,507.4,878.3,507.3,882.7z"/>
					<path fill="#8D5E2D" d="M518.5,858c0,0-3.4,8.1-8.7,12.4c-5.4,4.2-8.2,6.1-8.7,7.3c-0.5,1.1,2.5-0.7,4,1.6
						c1.5,2.3,0.9,4.5,0.9,4.5s7.9-0.7,10.7-2.2c2.8-1.4,3.7-3.9,4.5-4.7c0.9-0.8,7.7-0.5,8.7-4.4c1-3.9,1.3-14.3,1.3-14.3
						S524.3,853,518.5,858z"/>
					<path fill="#3C2415" d="M524.7,856.3L524.7,856.3c0,0-4.2,9.9-6.3,13.4c0,0,0,0,0,0c-0.1,0.2-4.4,6.3-13.4,9
						c-0.1,0-0.1,0.1-0.2,0.2c0.1,0.1,0.3,0.2,0.4,0.4c0.1,0.2,0.2,0.4,0.3,0.5c7.9-2.3,12.2-7.2,13.6-8.9c0.9,0.9,2.7,3.1,3.5,5.6
						c0.3-0.1,0.7-0.1,1.2-0.2c-0.9-3-3.1-5.5-4-6.4c2.3-3.9,6.2-13.1,6.2-13.1c0.1-0.3,0-0.7-0.3-0.8
						C525.1,855.9,524.8,856,524.7,856.3z M529.4,857.1c-0.1,0.1-0.1,0.2-0.1,0.3c0,0-0.6,14.3-2,17.9c0.6-0.2,1.1-0.5,1.5-0.9
						c1.2-4.9,1.6-14.9,1.7-16.6C530.1,857.6,529.8,857.4,529.4,857.1z"/>
				</g>
				<g>
					<path fill="#3C2415" d="M603.2,867.9c0,0,3.5,4.2,1.6,7.8c-2,3.6-2.3,2.5-2.3,2.5s-3.4,0.7-10.3-1.5c-6.8-2.2-8.6-8.3-8.6-8.3
						l0.2-1.8l-0.9-0.5l-0.8,1.8c0,0-3.7-1.1-5-2.4c-1.3-1.4-1.3-3.3-1.3-3.3l1.2-3.3L603.2,867.9z"/>
					<path fill="#FEC986" d="M597.1,873.2c0,0,2.6,2.1,4.2,2.2c1.6,0.1,1.5-0.8,1.5-0.8s1,1.4,2-0.3c1-1.7-0.5-4.8-2.1-5.2
						C601.1,868.6,597.8,868.9,597.1,873.2z"/>
					<path fill="#8D5E2D" d="M590.9,846.8c0,0,1.7,8.6,6.2,13.8c4.5,5.2,6.9,7.6,7.1,8.8c0.2,1.2-2.3-1.2-4.2,0.8
						c-1.9,2-1.7,4.2-1.7,4.2s-7.6-2.2-10.1-4.2c-2.4-1.9-2.9-4.5-3.6-5.4c-0.7-0.9-7.5-1.9-7.7-6c-0.2-4,1.4-14.3,1.4-14.3
						S586.2,840.7,590.9,846.8z"/>
					<path fill="#3C2415" d="M584.4,843.5c-0.3,0.1-0.5,0.4-0.5,0.7c0,0,2,9.7,3.5,14.1c-1,0.7-3.6,2.7-5.1,5.5
						c0.4,0.2,0.8,0.3,1.1,0.4c1.3-2.3,3.5-4.1,4.5-4.8c1,1.9,4.3,7.5,11.6,11.3c0.1-0.2,0.2-0.3,0.4-0.5c0.1-0.1,0.3-0.2,0.4-0.3
						c-0.1-0.1-0.1-0.2-0.2-0.2c-8.4-4.3-11.4-11.2-11.5-11.4c0,0,0,0,0,0c-1.5-3.8-3.6-14.3-3.6-14.3l0,0
						C585.1,843.6,584.7,843.4,584.4,843.5z M579.2,844.2c-0.3,1.7-1.8,11.6-1.5,16.7c0.4,0.5,0.8,0.9,1.3,1.2
						c-0.7-3.8,1.4-17.9,1.4-17.9c0-0.1,0-0.2-0.1-0.3C579.9,844,579.5,844.1,579.2,844.2z"/>
				</g>
				<path fill="#3C2415" d="M580.6,721.3c0,0,29.5,57.5,20,91.4c-9.5,33.9-9.5,33.9-9.5,33.9s-34.5,21.4-69.4,16.5
					c-34.9-4.9-36.7-19.4-36.7-19.4s32.7-29.9,37.5-64.4c4.8-34.5,4-50.6,4-50.6L580.6,721.3z"/>
				<path fill="#EC9123" d="M514.6,636.6c0.2-3.3,0.9-6.5,2.5-8.9c0.9-1.4,8.4-9.5,10.3-9.1c0,0,19.6,4.3,19.6,4.3l25.2,26
					c0,0,9.6,34.9,9.6,76c0,0-34.9,17.2-55.9,12c0,0-1.1-40.6-5.6-62.5c-4.7-3.2-7.6-5.9-5.7-11.7c1.9-5.9,0.8-11.7,0.3-17.8
					C514.6,642.5,514.4,639.5,514.6,636.6z"/>
				<path fill="#CCCCCC" d="M526,619.9c0,0-2.5,4.3-2.2,7c0.3,2.8,2.5,8.6,2.5,8.6l9-8.8c0,0,2.5,3.8,5.3,3.3
					c2.8-0.5,4.6-2.5,4.6-2.5s6.8,7.6,7.7,7.6c0.9,0,6.5-7.3,5.9-11.1c-0.6-3.8-3.7-8.1-11.8-8.1C539,615.9,531.6,613.9,526,619.9z"
					/>
				<path fill="#FEC986" d="M546.7,618.7c-0.4-2.8-2.9-7.2-2.9-7.2l-4,0.2l0,0l-0.3,0.1l-0.3,0l0,0l-3.9,0.9c0,0-1.3,4.9-0.9,7.7
					c0.3,2.3,4.7,2.9,6.3,3l0,0.1c0,0,0.1,0,0.3-0.1c0.2,0,0.3,0,0.3,0l0-0.1C542.9,622.8,547,621,546.7,618.7z"/>
				
					<ellipse transform="matrix(0.9913 -0.1316 0.1316 0.9913 -73.7656 73.4829)" fill="#FEC986" cx="519.2" cy="595" rx="2.4" ry="5"/>
				<path fill="#FEC986" d="M552.4,571.7c-3,3.1-5.8,3.8-5.8,3.8l0-2.9l-3,2.9c0,0,0.8-3.9-1-2.9c-1.5,0.9-6.5,1.9-7.9,2.2
					c-1.4,0.1-6.5,0.4-8.2,0c-2-0.5-0.2,3.1-0.2,3.1l-3.7-2l0.7,2.8c0,0-2.9,0-6.6-2.2c0,0,2,25.4,6.8,32.3c4.4,6.4,12,6.3,16,5.9
					l0,0c0.1,0,0.3,0,0.4-0.1c0.1,0,0.3,0,0.4,0l0,0c4-0.6,11.3-2.5,13.9-9.8C557,596.8,552.4,571.7,552.4,571.7z"/>
				<path fill="#1A1A1A" d="M534.5,571.5c0,0-0.2,4.1,6.8,7c7,2.9,12.4,4.5,13,8c0.6,3.5,3,22.8-0.3,29.5c-3.3,6.7-3.8,5.9-3.8,5.9
					l3.5-2.3c0,0-0.3,6.1-1.8,7.5c-1.5,1.4,3.8-1.1,7.1-5.6c3.3-4.5,7.7-13.4,5.1-31.6c-2.5-18.2-13.6-34.2-31-31.9
					C515.8,560.3,534.5,571.5,534.5,571.5z"/>
				<path fill="#FEC986" d="M557.1,590c-0.4-2.8-1.7-4.8-3-4.7c0,0-0.1,0-0.1,0c0.2,0.4,0.3,0.7,0.4,1.1c0.2,1.3,0.7,4.7,1,8.8
					c0,0,0,0,0,0C556.7,595.1,557.4,592.7,557.1,590z"/>
				<path fill="#1A1A1A" d="M542.6,584.4c0,0,0.5,0.8,1.7,0.1c1.2-0.7,3-2.7,4.3-2.9c1.3-0.2-0.2-0.9-2-0.3
					C544.8,581.9,542.6,584.4,542.6,584.4z"/>
				<path fill="#1A1A1A" d="M531.5,585.6c0,0-0.3,0.9-1.6,0.5c-1.3-0.4-3.5-2-4.8-1.9c-1.3,0.1,0-0.9,1.9-0.7
					C528.8,583.6,531.5,585.6,531.5,585.6z"/>
				<g>
					<path fill="#FFFFFF" d="M543.4,589.2c0,0-1.3,2.6-1.3,2.9c0,0.3-0.9,1.1-0.2,1c0.7,0,1.6-0.2,1.6-0.2s4.8-0.6,6.2-1.8
						c1.4-1.2,1.3-4.2,1.3-4.4C551,586.6,546.1,585,543.4,589.2z"/>
					<path fill="#1A1A1A" d="M546.3,585.6c3.1-0.8,4.5,0,4.5,0s1.4,3.1-0.5,5.2c-1.9,2.1-7,2-7,2s4-0.5,5.7-1.5
						c1.7-1,1.6-4.2,1.6-4.2s-1.3-1.3-4.6,0.2c-3.3,1.5-3.9,5.4-4.3,5.6c-0.4,0.3-0.6,0-0.6,0S541.2,587.4,546.3,585.6z"/>
					<path fill="#1A1A1A" d="M541.7,592.6l1.1,0.4c0,0-1.4,0.5-1.6,0C540.9,592.5,541.7,592.6,541.7,592.6z"/>
					<path fill="#1A1A1A" d="M546.4,589.6c-0.9,0.1-1.7-0.5-1.8-1.4c0-0.3,0-0.5,0.1-0.8c-0.1,0-0.1,0-0.2,0c-1.2,0.2-2,1.2-1.9,2.4
						c0.2,1.2,1.2,2,2.4,1.9c1.1-0.1,1.9-1.1,1.8-2.2C546.7,589.5,546.6,589.6,546.4,589.6z"/>
				</g>
				<g>
					<path fill="#FFFFFF" d="M530.6,590.9c0,0,2,2.2,2.1,2.5c0.1,0.2,1.1,0.8,0.4,0.9c-0.7,0.1-1.6,0.2-1.6,0.2s-4.8,0.7-6.4-0.1
						c-1.6-0.8-2.3-3.7-2.4-3.9C522.6,590.3,526.9,587.6,530.6,590.9z"/>
					<path fill="#1A1A1A" d="M526.9,588.2c-3.2,0-4.3,1.1-4.3,1.1s-0.6,3.3,1.8,4.9c2.4,1.6,7.3,0.1,7.3,0.1s-4,0.6-5.9,0.1
						c-1.9-0.5-2.6-3.6-2.6-3.6s0.9-1.6,4.5-1c3.6,0.6,5.2,4.2,5.6,4.3c0.4,0.2,0.6-0.1,0.6-0.1S532.3,588.6,526.9,588.2z"/>
					<path fill="#1A1A1A" d="M533.1,593.7l-0.9,0.7c0,0,1.5,0.1,1.6-0.4C533.8,593.5,533.1,593.7,533.1,593.7z"/>
					<path fill="#1A1A1A" d="M525,592c0.9-0.1,1.5-0.9,1.4-1.8c0-0.3-0.2-0.5-0.3-0.7c0.1,0,0.1-0.1,0.2-0.1
						c1.2-0.2,2.3,0.7,2.4,1.9c0.2,1.2-0.7,2.3-1.9,2.4c-1.1,0.1-2.1-0.6-2.4-1.7C524.6,592,524.8,592,525,592z"/>
				</g>
				<path fill="#1A1A1A" d="M530.7,630.6c0,0-10.7-1.9-15.9-13.2c-5.2-11.3-4.8-38.7,0.2-49.3c5-10.6,18.8-10.1,18.8-10.1l2.2,16.5
					c0,0-3.9,4.6-10.3,8.5c-6.4,3.9-6.7,6.9-6.6,10.7c0.1,3.8,0.4,10.6,5,19c4.5,8.4,8.5,11.5,8.5,11.5l-3.7-1.2
					c0,0,3.3,5.8,5.3,6.8C536.2,630.7,530.7,630.6,530.7,630.6z"/>
				<path fill="#1A1A1A" d="M531.1,606.5c0,0,4.5,0.8,9.2-0.9c4.7-1.7,5.9-4.1,5.9-4.1s3.3,4.6-1.8,8.2
					C539.3,613.4,533.7,612.6,531.1,606.5z"/>
				<path fill="#F68A42" d="M536.9,611.2c0,0,2-2,4.3-2.4c2.4-0.4,3.3-0.3,3.3-0.3S540.9,611.6,536.9,611.2z"/>
				<path fill="#CCCCCC" d="M534.1,607.3l0.4,0.8c0,0,2,0.5,6.3-0.9c4.3-1.4,4.6-2.5,4.6-2.5l-0.8-0.6c0,0-1.5,1.6-5.2,2.5
					C535.6,607.5,534.1,607.3,534.1,607.3z"/>
				<g>
					<path fill="#448CCB" d="M497,706c0,0,2.3-29.9,0-41c0,0,19.6,11.9,27.1,20.5v35.7C524.1,721.2,507.8,708.2,497,706z"/>
					<path fill="#3772A6" d="M524.1,685.5c0,0,9.3-8.8,26.2-18.6c0,0-2,19-2.6,35.6l-23.6,18.7V685.5z"/>
					<path fill="#FEC986" d="M505.8,690.2c1.5-0.1,3.4-1.7,2.2-3.3c-0.5-0.6-1.7-1-2.5-1.3c0.8-0.3,1.6-0.3,2-1.3
						c0.3-1-0.3-2.1-1-2.7c-0.7-0.6-1.6-0.5-2.5-0.5c1.2-0.3,2.5-0.8,1.8-2.3c-1.5-3.1-6.2-1.4-8.7-0.8c0,0,0,0-0.1,0
						c-3,0.8-4.7,3.1-5.3,6.1c-0.4,2.2,0.2,5.4,1.1,7.5c0.8,1.9,2.5,3.8,4.4,4.6c2.4,1,5.9-0.3,8.4-0.6c1.5-0.2,3.1-0.8,3.1-2.5
						C508.7,691.5,507.2,690.1,505.8,690.2z"/>
					<path fill="#FEC986" d="M541.3,690.2c-1.5-0.1-3.4-1.7-2.2-3.3c0.5-0.6,1.7-1,2.5-1.3c-0.8-0.3-1.6-0.3-2-1.3
						c-0.3-1,0.3-2.1,1-2.7c0.7-0.6,1.6-0.5,2.5-0.5c-1.2-0.3-2.5-0.8-1.8-2.3c1.5-3.1,6.2-1.4,8.7-0.8c0,0,0,0,0.1,0
						c3,0.8,4.7,3.1,5.3,6.1c0.4,2.2-0.2,5.4-1.1,7.5c-0.8,1.9-2.5,3.8-4.4,4.6c-2.4,1-5.9-0.3-8.4-0.6c-1.5-0.2-3.1-0.8-3.1-2.5
						C538.4,691.5,539.9,690.1,541.3,690.2z"/>
				</g>
			</g>
			<g>
				<path fill="#EC9123" d="M313.5,181.4c16.6,11,34,27.5,37.6,48.3c1.8,10.3,2.5,25.4-9.3,29.1c0,0-6.1-13.5-6.1-13.6
					c-0.1-0.3,0.4-1.8,0.4-2.1c0.3-2.2,0.1-4.4-0.4-6.5c-0.9-4.4-4.1-8.3-7.5-11c-3.1-2.5-6.7-4.2-10.1-6c-1.6-0.8-3.3-1.4-5.2-1.7
					c-0.8-0.1-3.9,0.1-4.5-0.4c-1.5-1.4,0.8-4.5,1.4-6c2.2-5.6,2.4-11.8,2.8-17.8C312.7,192.5,314.3,182,313.5,181.4z"/>
				<g>
					<g>
						<path fill="#3C2415" d="M337.9,461.2l5,1.5c0,0,1.9,5.1-1.6,6.7c-3.5,1.6-11.6,5.3-18.9,3c-7.3-2.3-4.6-2-4.6-2
							s-1.2-4-4.5-3.3c-3.3,0.7-1.2,2.4-1.2,2.4s-7.9,0.7-10.8-2.9c-2.9-3.7-0.6-7.1-0.6-7.1L337.9,461.2z"/>
						<path fill="#8D5E2D" d="M298,442.8l2.2,18l2.1,1.5c0,0,4.8,4.7,9.6,3.3c4.8-1.4,4.8,1.7,11.1,2.5c6.3,0.8,22.5,0.1,20.5-8.4
							c-2-8.5-7.3-7.4-15.2-9.5c-7.9-2.1-11.7-15.3-11.7-15.3S297.9,432,298,442.8z"/>
						<path fill="#3C2415" d="M312.1,444.2c0,0.6,0.5,1.1,0.9,1.1c0.5,0,0.8-0.6,0.8-1.2c0-0.6-0.5-1.1-0.9-1.1
							C312.4,443,312,443.5,312.1,444.2z"/>
						<path fill="#3C2415" d="M315.8,450c0,0.6,0.5,1.1,0.9,1.1c0.5,0,0.8-0.6,0.8-1.2c0-0.6-0.5-1.1-0.9-1.1
							C316.1,448.8,315.8,449.4,315.8,450z"/>
						<path fill="#3C2415" d="M321.1,453.5c0.1,0.6,0.5,1.1,0.9,1.1c0.5,0,0.8-0.6,0.8-1.2c0-0.6-0.5-1.1-0.9-1.1
							C321.4,452.3,321.1,452.9,321.1,453.5z"/>
						<path fill="#3C2415" d="M324.8,450.4c0,0.6,0.5,1.1,0.9,1.1c0.5,0,0.8-0.6,0.8-1.2c0-0.6-0.5-1.1-0.9-1.1
							C325.1,449.2,324.8,449.8,324.8,450.4z"/>
						<path fill="#3C2415" d="M320.7,446.9c0,0.6,0.5,1.1,0.9,1.1c0.5,0,0.8-0.6,0.8-1.2c0-0.6-0.5-1.1-0.9-1.1
							C321,445.7,320.7,446.2,320.7,446.9z"/>
						<path fill="#3C2415" d="M317.6,443.1c0,0.6,0.5,1.1,0.9,1.1c0.5,0,0.8-0.6,0.8-1.2c0-0.6-0.5-1.1-0.9-1.1
							C317.9,441.9,317.6,442.4,317.6,443.1z"/>
						<g>
							<path fill="#3C2415" d="M315.2,455.3C315.1,455.3,315.1,455.3,315.2,455.3L315.2,455.3c-0.3,0-0.5-0.1-0.5-0.3l0,0
								c-0.1-0.4-0.2-0.8-0.2-1.3l0,0c-0.2-3.2,1.6-7.4,2.1-10.1l0,0c-1.4,1.7-4.4,6.9-6.3,7.2l0,0c-0.7,0.1-1.1-0.6-1.1-1.4l0,0
								c0-0.1,0-0.1,0-0.1l0,0c-0.1-2.2,1.3-4.1,3.2-5.6l0,0c-0.1-0.3-0.2-0.8-0.2-1.2l0,0c-0.1-0.9,0.2-2.1,1.6-2.2l0,0
								c0.4,0,0.9,0,1.5,0.2l0,0c0.7,0.2,1.4,0.3,2.1,0.4l0,0c1.4-0.5,2.7-0.9,3.6-1l0,0c0.4,0,0.7,0,0.9,0l0,0
								c0.2,0.1,0.5,0,0.6,0.5l0,0c-0.2,0.8-0.6,0.6-1.2,0.9l0,0c-0.6,0.2-1.4,0.3-2.3,0.4l0,0c0,0-0.1,0-0.1,0l0,0
								c0,0.1,0,0.1,0,0.2l-1.5,7.1l4-2.6l0,0c0.1-0.1,0.3-0.1,0.4,0l0,0c0.1,0.1,0.2,0.2,0.2,0.3l0.3,5l0,0
								c1.2-1.3,3.3-1.7,3.3-1.8l0,0c0.2-0.1,0.4,0.1,0.5,0.3l0,0c0.1,0.2-0.1,0.5-0.3,0.5l0,0c0,0-3.4,1.1-3.4,2.5l0,0.1h0l0,0
								c0,0,0,0,0,0l0,0c0,0.2-0.2,0.4-0.4,0.4l0,0c-0.2,0-0.4-0.2-0.4-0.4v0l0,0l0,0l0,0l-0.4-5.9l-4.3,2.8l0,0
								c-0.1,0.1-0.3,0.1-0.5,0l0,0c-0.1-0.1-0.2-0.3-0.2-0.4l1.5-7.3l-0.5,0.2l0,0c0,0.1,0.1,0.2,0.1,0.2l0,0c0,0.1,0,0.2,0,0.4
								l0,0c-0.4,2.9-2.4,7.3-2.1,10.3l0,0c0,0.4,0.1,0.7,0.2,1.1l0,0C315.5,455,315.4,455.2,315.2,455.3L315.2,455.3z M313.5,446.3
								c0.8-1.1,1.5-2.1,2-2.9l-2.5,1l0,0c-0.1,0-0.2,0-0.3,0l0,0c0,0,0,0-0.1,0l0,0c-1.7,1.4-2.9,3.1-2.8,4.8l0,0c0,0,0,0.1,0,0.1
								l0,0c0.1,0.6,0.2,0.6,0.2,0.6l0,0C310.6,450.1,312.2,448.2,313.5,446.3L313.5,446.3z M313,443.1c0.9-0.6,1.8-1.1,2.7-1.6l0,0
								c-0.3-0.1-0.6-0.1-0.8-0.2l0,0c-0.5-0.2-1-0.2-1.2-0.2l0,0c-0.7,0.1-0.8,0.5-0.8,1.3l0,0C312.9,442.7,313,442.9,313,443.1
								L313,443.1z M315.8,442.5l1.7-0.7l0,0c-0.1,0-0.1,0-0.2,0l0,0C316.9,441.9,316.4,442.2,315.8,442.5L315.8,442.5z"/>
						</g>
						<g>
							<path fill="#3C2415" d="M326.8,449.5c-0.1,0-0.1,0.1-0.2,0.1l0,0c-0.1,0-0.3,0-0.4-0.2l0,0c-2.2-3.2-9.3-3.2-9.9-6.9l0,0
								c0-0.4,0.2-0.9,0.5-1.1l0,0c0,0,0-0.1,0-0.2l0,0c0-0.2,0.2-0.4,0.5-0.4l0,0c0,0.1,7.7,0.7,8.3,4.3l0,0c0,0.1,0,0.1,0,0.3l0,0
								c0,0.5-0.4,1-0.9,1l0,0c-1.9,0-6.6-4.4-7.6-4.2l0,0c0,0,0,0.1,0,0.2l0,0c-0.1,2.5,7,3,9.7,6.5l0,0
								C327,449.1,327,449.4,326.8,449.5L326.8,449.5z M324.8,445.3c0.1-1.7-3.7-2.7-6-3.2l0,0c2.1,1.2,5,3.7,5.9,3.6l0,0
								c0.1,0,0,0,0.1-0.2l0,0C324.8,445.4,324.8,445.3,324.8,445.3L324.8,445.3z"/>
						</g>
					</g>
				</g>
				<g>
					<path fill="#3C2415" d="M248.4,467.8l-2.8,4.4c0,0,1.9,5.1,5.6,4.1c3.7-1.1,12.3-3.5,16.3-10c4-6.5,2.2-4.6,2.2-4.6
						s-1.6-3.8,1.3-5.4c2.9-1.6,2.5,1,2.5,1s6.5-4.5,6.3-9.2c-0.2-4.6-4.1-5.8-4.1-5.8L248.4,467.8z"/>
					<path fill="#8D5E2D" d="M267,427.9l10,15.1l-0.6,2.5c0,0-0.6,6.7-5.2,8.7c-4.5,2.1-2.6,4.4-6.8,9c-4.3,4.7-17.1,14.6-21.1,6.8
						c-4-7.8,0.8-10.4,5.5-17.1s-1-19.2-1-19.2S260.1,419.6,267,427.9z"/>
					<path fill="#3C2415" d="M257.2,438.1c0.4,0.5,0.4,1.2,0,1.4c-0.4,0.3-1,0.1-1.4-0.4c-0.4-0.5-0.4-1.2,0-1.4
						C256.2,437.4,256.8,437.6,257.2,438.1z"/>
					<path fill="#3C2415" d="M258,445c0.4,0.5,0.4,1.2,0,1.4c-0.4,0.3-1,0.1-1.4-0.4c-0.4-0.5-0.4-1.2,0-1.4
						C257.1,444.2,257.7,444.4,258,445z"/>
					<path fill="#3C2415" d="M256.3,451c0.4,0.5,0.4,1.2,0,1.4c-0.4,0.3-1,0.1-1.4-0.4c-0.4-0.5-0.4-1.2,0-1.4
						C255.3,450.3,255.9,450.5,256.3,451z"/>
					<path fill="#3C2415" d="M251.4,451.1c0.4,0.5,0.4,1.2,0,1.4c-0.4,0.3-1,0.1-1.4-0.4c-0.4-0.5-0.4-1.2,0-1.4
						C250.4,450.4,251.1,450.6,251.4,451.1z"/>
					<path fill="#3C2415" d="M252.3,445.7c0.4,0.5,0.4,1.2,0,1.4c-0.4,0.3-1,0.1-1.4-0.4c-0.4-0.5-0.4-1.2,0-1.4
						C251.3,445,251.9,445.2,252.3,445.7z"/>
					<path fill="#3C2415" d="M252.2,440.8c0.4,0.5,0.4,1.2,0,1.4c-0.4,0.3-1,0.1-1.4-0.4c-0.4-0.5-0.4-1.2,0-1.4
						C251.2,440.1,251.8,440.3,252.2,440.8z"/>
					<g>
						<path fill="#3C2415" d="M262,448.5c-0.2,0.1-0.5,0-0.5-0.2l0,0c-0.1-0.3-0.3-0.6-0.6-1l0,0c-1.8-2.5-6.2-4.6-8.3-6.5l0,0
							c-0.1-0.1-0.2-0.2-0.3-0.3l0,0c0,0-0.1-0.1-0.1-0.2l0,0l-0.5,0.2l5.9,4.6c0.1,0.1,0.2,0.3,0.1,0.4l0,0
							c-0.1,0.2-0.2,0.3-0.4,0.3l0,0l-5,0.6l3.5,4.7l0,0l0,0l0,0l0,0c0.1,0.2,0.1,0.4-0.1,0.6l0,0c-0.2,0.1-0.4,0.1-0.6-0.1l0,0
							c0,0,0,0,0,0l0,0v0l-0.1-0.1c-0.9-1.1-4.2,0.3-4.2,0.3l0,0c-0.2,0.1-0.5,0-0.6-0.2l0,0c-0.1-0.2,0-0.5,0.2-0.6l0,0
							c0,0,2-1,3.7-0.8l0,0l-3-4c-0.1-0.1-0.1-0.3-0.1-0.4l0,0c0.1-0.1,0.2-0.2,0.3-0.3l0,0l4.8-0.6l-5.8-4.5
							c-0.1,0-0.1-0.1-0.1-0.2l0,0c0,0-0.1,0-0.1,0.1l0,0c-0.7,0.5-1.5,0.9-2,1.2l0,0c-0.6,0.2-0.8,0.6-1.5,0.1l0,0
							c-0.2-0.5,0-0.6,0.2-0.8l0,0c0.2-0.2,0.4-0.4,0.7-0.6l0,0c0.8-0.5,2-1.1,3.4-1.6l0,0c0.5-0.5,1-1,1.3-1.6l0,0
							c0.3-0.5,0.7-0.9,1-1.2l0,0c1.1-0.8,2.1,0,2.6,0.7l0,0c0.3,0.4,0.5,0.8,0.6,1.1l0,0c2.5-0.1,4.8,0.5,6.1,2.2l0,0
							c0,0,0,0.1,0.1,0.1l0,0c0.4,0.6,0.6,1.4,0,1.8l0,0c-1.6,1-7.3-1-9.4-1.4l0,0c2.1,1.8,6.2,3.8,8.1,6.4l0,0
							c0.3,0.4,0.5,0.7,0.6,1.1l0,0C262.3,448.2,262.2,448.4,262,448.5L262,448.5C262,448.5,262,448.5,262,448.5L262,448.5z
							 M257.4,440.6c2.2,0.6,4.7,0.9,4.9,0.6l0,0c0,0,0.1-0.1-0.2-0.6l0,0c0-0.1-0.1-0.1-0.1-0.1l0,0c-1-1.4-3-1.9-5.2-1.9l0,0
							c0,0,0,0,0,0.1l0,0c0,0.1-0.1,0.2-0.2,0.2l0,0l-2.6,0.8C254.9,440,256.1,440.4,257.4,440.6L257.4,440.6z M255.7,437.9
							c-0.1-0.2-0.2-0.4-0.4-0.6l0,0c-0.5-0.6-0.8-0.9-1.4-0.5l0,0c-0.2,0.2-0.5,0.5-0.8,0.9l0,0c-0.2,0.2-0.3,0.5-0.5,0.7l0,0
							C253.6,438.2,254.7,438,255.7,437.9L255.7,437.9z M253.2,439.2c-0.6,0.1-1.1,0.3-1.6,0.5l0,0c0,0-0.1,0.1-0.1,0.1l0,0
							L253.2,439.2L253.2,439.2z"/>
					</g>
					<g>
						<path fill="#3C2415" d="M249.4,451.7c-0.2,0-0.4-0.2-0.5-0.4l0,0c-0.2-4.4,4.9-9.4,3.2-11.2l0,0c-0.1-0.1-0.1-0.1-0.1-0.2l0,0
							c-0.9,0.5-1.6,6.9-3,8.1l0,0c-0.4,0.3-1,0.2-1.3-0.2l0,0c-0.1-0.1-0.1-0.1-0.2-0.2l0,0c-1.9-3.1,3.6-8.5,3.5-8.6l0,0
							c0.2-0.2,0.4-0.2,0.6,0l0,0c0,0,0.1,0.1,0.1,0.1l0,0c0.4-0.1,0.8,0.1,1.1,0.5l0,0c2,3.1-3.5,7.8-3.1,11.7l0,0
							c0,0.2-0.1,0.3-0.2,0.4l0,0C249.5,451.6,249.5,451.7,249.4,451.7L249.4,451.7z M248.2,447.1c0,0,0.1,0.1,0.1,0.1l0,0
							c0.2,0.1,0.1,0.1,0.2,0.1l0,0c0.8-0.4,1.3-4.2,2.2-6.5l0,0C249.3,442.6,247.1,445.9,248.2,447.1L248.2,447.1z"/>
					</g>
				</g>
				<path fill="#3C2415" d="M240.1,288.8c0,0-21.1,72.7-20,84.6c1.1,11.9,32,61.6,32,61.6s9.5,2.1,10.5-5.1
					c1-7.2-17.1-36.3-21.6-54.2c-5.5-13,9.8-45.3,29-49.4c19.2-4.1,31.3,113.6,31.3,113.6s7.1,6.1,10.9-2.6
					c3.8-8.7,1.5-126.7-1.9-148.3C306.8,267.5,240.1,288.8,240.1,288.8z"/>
				<path fill="#EC9123" d="M250.6,187.3c5.3-6.7,16.1-11.4,24.8-11.5c7.5-0.1,14.4-1,22,0.3c5.4,0.9,13.4,2.2,17.3,6.3
					c3.6,3.8,4.3,9.6,4.4,14.6c0,3.4,0,6.8,0,10.2c0,5-2.4,9.6-3.2,14.5c-0.7,4.2-1,8.5-1.2,12.8c-0.5,10.3-0.4,20.6-0.1,30.9
					c0.3,10.7,0.8,21.5,1.6,32.2c0,0-9,15.8-39.9,12.8c-30.9-3-39.2-19.2-39.2-19.2S227.8,216,250.6,187.3z"/>
				<path fill="#CCCCCC" d="M315.5,255.7c0.8-1.4,3.4-4.6,6.2-2.9c0.8,0.4,2.5,14-0.2,14.4c-2.8,0.4-5.8-2.1-5.8-2.1
					S313.4,260.5,315.5,255.7z"/>
				<path fill="#CCCCCC" d="M298.6,173.9c0,0,3.1,4.5,3,7.6c-0.1,3.1-2,9.6-2,9.6l-10.6-8.9c0,0-2.4,4.3-5.5,4
					c-3.1-0.3-5.3-2.4-5.3-2.4s-6.8,8.9-7.9,8.9c-1,0.1-7.7-7.5-7.4-11.7c0.4-4.2,3.4-9.1,12.2-9.8C284,170.6,292,167.8,298.6,173.9
					z"/>
				<path fill="#EC9123" d="M248.8,189.5c0,0,3.8-7.1,9.1-6c5.4,1.1,9.1,10.6,2.9,15.3c-6.1,4.6-28.2,40.9-9.3,53.3
					c18.8,12.4,53.5,3.3,58.1,4.6c4.7,1.3,5.8,12-0.5,14.3c-6.3,2.4-52.2,4.5-67.9-7c-15.7-11.5-11.4-29-9.7-38.8
					C233.3,215.4,248.8,189.5,248.8,189.5z"/>
				<path fill="#FAAD5E" d="M288.1,178.1c0-3.1-2.1-8.3-2.1-8.3l-4.4-0.4v-0.1l-0.3,0l-0.3,0v0.1l-4.4,0.4c0,0-2.1,5.2-2.1,8.3
					c0,2.6,4.8,3.9,6.4,4.2v0.1c0,0,0.1,0,0.3-0.1c0.2,0,0.3,0.1,0.3,0.1v-0.1C283.4,182,288.1,180.7,288.1,178.1z"/>
				<path fill="#754C29" d="M325.5,129.9c0.2-1.5-0.7-2.8-1.9-3.4c1.3-0.5,2.2-1.8,2.2-3.3c-0.1-1.5-1.1-2.7-2.4-3.1
					c1.2-0.7,1.9-2.1,1.6-3.6c-0.3-1.5-1.5-2.5-2.9-2.7c1.1-0.9,1.6-2.4,1.1-3.8c-0.5-1.4-1.9-2.3-3.2-2.2c1-1,1.2-2.6,0.5-3.9
					c-0.7-1.3-2.2-1.9-3.6-1.7c0.8-1.2,0.8-2.8-0.1-4c-0.9-1.2-2.4-1.6-3.8-1.1c0.6-1.3,0.4-2.9-0.7-3.9c-1.1-1-2.7-1.2-3.9-0.6
					c0.4-1.4-0.1-2.9-1.3-3.8c-1.2-0.9-2.8-0.8-3.9,0c0.2-1.4-0.5-2.8-1.9-3.5c-1.4-0.7-2.9-0.3-3.9,0.6c0-1.4-0.9-2.7-2.4-3.2
					c-1.4-0.5-2.9,0.1-3.7,1.2c-0.2-1.4-1.3-2.6-2.8-2.8c-1.5-0.2-2.9,0.5-3.5,1.8c-0.4-1.3-1.7-2.3-3.2-2.3c-0.3,0-0.6,0.1-0.8,0.2
					c-0.3-0.1-0.6-0.2-0.9-0.1c-1.5,0.1-2.7,1.1-3.1,2.4c-0.7-1.2-2.1-2-3.6-1.7c-1.5,0.3-2.5,1.5-2.7,2.9c-0.9-1.1-2.4-1.6-3.8-1.1
					c-1.4,0.5-2.3,1.8-2.2,3.2c-1-1-2.6-1.2-3.9-0.5c-1.3,0.7-2,2.2-1.7,3.5c-1.2-0.8-2.8-0.8-4,0.1c-1.2,0.9-1.6,2.4-1.2,3.8
					c-1.3-0.6-2.8-0.4-3.9,0.7c-1.1,1.1-1.2,2.7-0.6,3.9c-1.3-0.4-2.9,0-3.8,1.3c-0.9,1.2-0.8,2.8,0,3.9c-1.4-0.2-2.8,0.5-3.5,1.8
					c-0.7,1.4-0.4,2.9,0.6,3.9c-1.4,0-2.7,0.9-3.2,2.3c-0.5,1.4,0.1,2.9,1.2,3.8c-1.4,0.2-2.6,1.3-2.8,2.8c-0.2,1.5,0.5,2.9,1.7,3.5
					c-1.3,0.4-2.3,1.7-2.4,3.2c0,1.5,0.9,2.8,2.3,3.2c-1.3,0.6-2.1,2-1.8,3.5c0.2,1.5,1.3,2.6,2.7,2.9c-1.2,0.8-1.7,2.3-1.3,3.8
					c0.4,1.4,1.7,2.4,3.1,2.4c-1,1-1.4,2.5-0.7,3.9c0.7,1.4,2.1,2.1,3.4,1.9c-0.9,1.1-1,2.7-0.1,4c0.9,1.2,2.4,1.7,3.7,1.4
					c-0.7,1.2-0.5,2.8,0.5,3.9c1,1.1,2.6,1.4,3.9,0.8c-0.5,1.3-0.1,2.9,1.1,3.8c1.2,0.9,2.8,0.9,3.9,0.2c-0.3,1.4,0.3,2.9,1.7,3.6
					c1.3,0.7,2.9,0.5,3.9-0.4c-0.1,1.4,0.8,2.8,2.2,3.3c1.4,0.5,2.9,0.1,3.8-1c0.2,1.4,1.2,2.6,2.7,2.9c1.5,0.3,2.9-0.4,3.6-1.6
					c0.4,1.4,1.6,2.4,3.1,2.5c1.5,0.1,2.8-0.8,3.3-2.1c0.6,1.3,1.9,2.2,3.4,2c1.5-0.1,2.7-1.2,3-2.6c0.8,1.2,2.2,1.8,3.7,1.5
					c1.5-0.4,2.4-1.6,2.6-3c0.9,1.1,2.5,1.5,3.9,0.9c1.4-0.6,2.2-2,2.1-3.4c1.1,0.9,2.7,1.1,4,0.3c1.3-0.8,1.8-2.3,1.5-3.6
					c1.2,0.7,2.8,0.7,4-0.3c1.1-1,1.5-2.5,1-3.8c1.3,0.5,2.9,0.2,3.9-0.9c1-1.1,1.1-2.7,0.4-3.9c1.4,0.3,2.9-0.2,3.7-1.5
					c0.8-1.3,0.6-2.8-0.2-3.9c1.4,0.1,2.8-0.6,3.4-2c0.6-1.4,0.2-2.9-0.8-3.9c1.4-0.1,2.7-1,3.1-2.5c0.4-1.5-0.2-2.9-1.4-3.7
					C324.2,132.5,325.3,131.4,325.5,129.9z"/>
				<ellipse fill="#FAAD5E" cx="261.6" cy="148.3" rx="2.6" ry="5.5"/>
				<ellipse fill="#FAAD5E" cx="300.9" cy="148.3" rx="2.6" ry="5.5"/>
				<path fill="#FAAD5E" d="M301.1,127.6c-3.7,2.9-6.9,3.3-6.9,3.3l0.4-3.1l-3.7,2.7c0,0,1.5-4.2-0.6-3.3c-1.8,0.7-7.4,1.1-8.9,1.2
					c-1.6-0.1-7.1-0.5-8.9-1.2c-2.1-0.8-0.6,3.3-0.6,3.3l-3.7-2.7l0.4,3.1c0,0-3.1-0.4-6.9-3.3c0,0-1.5,28,2.7,36.1
					c3.9,7.6,12.1,8.6,16.6,8.7v0c0.1,0,0.3,0,0.4,0s0.3,0,0.4,0v0c4.4-0.1,12.7-1.1,16.6-8.7C302.5,155.7,301.1,127.6,301.1,127.6z
					"/>
				<path fill="#1A1A1A" d="M290.7,148.6c-2.6,0-4.7-1.3-5.2-3.1c-0.1,0.3-0.1,0.5-0.1,0.8c0,2.2,2.4,3.9,5.3,3.9
					c2.9,0,5.3-1.7,5.3-3.9c0-0.3,0-0.5-0.1-0.8C295.4,147.2,293.2,148.6,290.7,148.6z"/>
				<path fill="#1A1A1A" d="M272.4,148.6c-2.6,0-4.7-1.3-5.2-3.1c-0.1,0.3-0.1,0.5-0.1,0.8c0,2.2,2.4,3.9,5.3,3.9s5.3-1.7,5.3-3.9
					c0-0.3,0-0.5-0.1-0.8C277.1,147.2,275,148.6,272.4,148.6z"/>
				<path fill="#FAAD5E" d="M280.1,147.9c0,0-2.1,3.2-2.1,4.9c0,1.8,0.2,5.2,0.6,5.4c0.4,0.2,2,0.2,3.2,0.2c1.2,0,3.4-2.1,3.4-2.1
					s-0.2-4-0.6-5.2c-0.3-1.2-2.1-3.2-2.9-3.4C281,147.6,280.7,147,280.1,147.9z"/>
				<path fill="#1A1A1A" d="M291.6,157.8c0,0-7.5,4.4-14.7,4.5c-7.2,0.2-5.5-0.5-5.5-0.5s2,8,10.2,7.5
					C289.9,168.9,291.6,157.8,291.6,157.8z"/>
				<path fill="#FFFFFF" d="M274.4,163.4c0,0,3.9,0.2,8.2-1c4.3-1.3,5.7-1.9,5.7-1.9l0.1,1.3c0,0-2.9,1.8-8.4,2.5
					c-5.4,0.7-5.4,0.7-5.4,0.7L274.4,163.4z"/>
				<path fill="#FAAD5E" d="M279.7,168.1c0,0,1-1.8,3.4-2.2c2.4-0.3,3.6,0,3.6,0s-1.7,1.8-4,2.2
					C280.4,168.5,279.7,168.1,279.7,168.1z"/>
				<path fill="#1A1A1A" d="M266.6,142.8c0,0,1.9-2.1,3.7-2.4c1.8-0.3,5.2,0.5,5.8,0c0.6-0.5,0.3-1.2,0.3-1.2s-4.3-1-6.5,0
					C267.7,140.2,266.6,142.8,266.6,142.8z"/>
				<path fill="#1A1A1A" d="M295.5,139.1c0,0-2.5-1.3-4.3-1.1c-1.8,0.3-4.7,2.2-5.5,1.9c-0.8-0.3-0.6-1-0.6-1s3.7-2.4,6.1-2.2
					C293.6,136.9,295.5,139.1,295.5,139.1z"/>
				<g>
					<path fill="#448CCB" d="M280.8,270.9c0,0,2.7-34.1,0-46.8c0,0,22.4,13.6,31,23.4v40.8C311.8,288.3,293.1,273.4,280.8,270.9z"/>
					<path fill="#3772A6" d="M311.8,247.5c0,0,10.7-10.1,30-21.3c0,0-2.3,21.7-3,40.6l-27,21.4V247.5z"/>
					<path fill="#FEC986" d="M290.8,252.9c1.7-0.2,3.9-2,2.6-3.8c-0.6-0.7-2-1.2-2.8-1.5c0.9-0.3,1.9-0.3,2.3-1.4
						c0.4-1.1-0.3-2.4-1.1-3.1c-0.8-0.7-1.8-0.5-2.8-0.6c1.3-0.3,2.8-0.9,2-2.6c-1.7-3.6-7.1-1.6-9.9-0.9c0,0,0,0-0.1,0
						c-3.4,0.9-5.4,3.6-6.1,6.9c-0.5,2.5,0.2,6.2,1.2,8.5c0.9,2.2,2.8,4.3,5.1,5.3c2.7,1.1,6.8-0.3,9.6-0.7c1.7-0.3,3.5-0.9,3.5-2.9
						C294.2,254.3,292.4,252.7,290.8,252.9z"/>
					<path fill="#FEC986" d="M331.4,252.9c-1.7-0.2-3.9-2-2.6-3.8c0.6-0.7,2-1.2,2.8-1.5c-0.9-0.3-1.9-0.3-2.3-1.4
						c-0.4-1.1,0.3-2.4,1.1-3.1c0.8-0.7,1.8-0.5,2.8-0.6c-1.3-0.3-2.8-0.9-2-2.6c1.7-3.6,7.1-1.6,9.9-0.9c0,0,0,0,0.1,0
						c3.4,0.9,5.4,3.6,6.1,6.9c0.5,2.5-0.2,6.2-1.2,8.5c-0.9,2.2-2.8,4.3-5.1,5.3c-2.7,1.1-6.8-0.3-9.6-0.7
						c-1.7-0.3-3.5-0.9-3.5-2.9C328,254.3,329.8,252.7,331.4,252.9z"/>
				</g>
			</g>
			<g>
				<path fill="#EC9123" d="M1163,623.4c0,0,31.8,31.8,38.1,48.8c8.5,22.8-7.6,25-7.6,25l-3-13.1c0,0-10.6-23.8-27.6-27.2V623.4z"/>
				<path fill="#EC9123" d="M1149.3,700c-16.3-9.8-23.6-27.1-23.6-45.8c0-22,20.1-32.5,20.1-32.5s-11-4.8-11-4.8
					c-1-0.4-5.7,2.4-6.8,2.9c-6.8,3.3-12.5,7.3-16.3,14c-4.1,7.3-6.6,15.8-6.6,24.2c0,4.8,2.1,8.6,4.1,12.8c1.2,2.6,2.3,4.9,3.2,7.6
					c3.3,9.1,8.7,18,14.8,25.5c2.9,3.5,6.2,6.8,10,9.3c1,0.6,12.1,5.7,12.1,5.2C1149.3,718.6,1149.3,700,1149.3,700z"/>
				<path fill="#1A1A1A" d="M1167.3,615.8c-2.1-9.5-1.3-14.9,0.6-23.8c1.9-8.8,6-34-19.3-36.2l0,0c-0.1,0-0.2,0-0.3,0
					c-0.1,0-0.2,0-0.3,0l0,0c-25.4-1.4-24.9,24.1-24.3,33.1c0.6,9.1,0.6,14.6-2.8,23.7c-3.4,9.1-4.2,21.5-4.2,21.5l25.2,7.4l0,0.1
					l0.3,0l0.3,0.1l0-0.1l26-3.7C1168.4,637.6,1169.4,625.2,1167.3,615.8z"/>
				<path fill="#6A4232" d="M1189.8,844.9l9.7-1.2c0,0,6.5,8.9-2.4,17.6c-8.9,8.7-33.3,10.7-59.2,3.7c-25.9-7-41.2-17.4-41.2-17.4
					L1189.8,844.9z"/>
				<g>
					<path fill="#3C2415" d="M1182.2,876.3c0,0,4.3,3.5,3,7.3c-1.3,3.9-1.7,2.9-1.7,2.9s-3.2,1.4-10.4,0.6c-7.1-0.8-10-6.5-10-6.5
						l-0.2-1.8l-1-0.3l-0.4,1.9c0,0-3.9-0.3-5.4-1.4c-1.6-1.1-1.9-3-1.9-3l0.6-3.4L1182.2,876.3z"/>
					<path fill="#FEC986" d="M1177.2,882.7c0,0,2.9,1.6,4.5,1.3c1.6-0.2,1.4-1.1,1.4-1.1s1.2,1.2,1.9-0.7c0.6-1.9-1.4-4.6-3-4.7
						C1180.3,877.5,1177.1,878.3,1177.2,882.7z"/>
					<path fill="#8D5E2D" d="M1166.1,858c0,0,3.4,8.1,8.7,12.4c5.4,4.2,8.2,6.1,8.7,7.3c0.5,1.1-2.5-0.7-4,1.6
						c-1.5,2.3-0.9,4.5-0.9,4.5s-7.9-0.7-10.7-2.2c-2.7-1.4-3.7-3.9-4.5-4.7c-0.9-0.8-7.7-0.5-8.7-4.4c-1-3.9-1.3-14.3-1.3-14.3
						S1160.3,853,1166.1,858z"/>
					<path fill="#3C2415" d="M1159.1,856c-0.3,0.1-0.4,0.5-0.3,0.8c0,0,3.9,9.2,6.2,13.1c-0.8,0.9-3,3.4-4,6.4
						c0.4,0.1,0.8,0.1,1.2,0.2c0.8-2.5,2.6-4.7,3.5-5.6c1.3,1.7,5.7,6.5,13.6,8.9c0.1-0.2,0.2-0.4,0.3-0.5c0.1-0.2,0.2-0.3,0.4-0.4
						c-0.1-0.1-0.1-0.1-0.2-0.2c-9.1-2.6-13.3-8.8-13.4-9c0,0,0,0,0,0c-2.2-3.5-6.3-13.3-6.3-13.4l0,0
						C1159.7,856,1159.4,855.9,1159.1,856z M1154.1,857.7c0.1,1.7,0.5,11.8,1.7,16.6c0.4,0.4,1,0.7,1.5,0.9
						c-1.5-3.6-2.1-17.9-2-17.9c0-0.1-0.1-0.2-0.1-0.3C1154.8,857.4,1154.4,857.6,1154.1,857.7z"/>
				</g>
				<g>
					<path fill="#3C2415" d="M1081.4,867.9c0,0-3.5,4.2-1.6,7.8c2,3.6,2.3,2.5,2.3,2.5s3.4,0.7,10.3-1.4c6.8-2.2,8.6-8.3,8.6-8.3
						l-0.2-1.8l0.9-0.5l0.8,1.8c0,0,3.7-1.1,5-2.4c1.3-1.4,1.3-3.3,1.3-3.3l-1.2-3.3L1081.4,867.9z"/>
					<path fill="#FEC986" d="M1087.4,873.2c0,0-2.6,2.1-4.2,2.2c-1.6,0.1-1.5-0.8-1.5-0.8s-1,1.4-2-0.3c-1-1.7,0.5-4.8,2.1-5.2
						C1083.4,868.6,1086.7,868.9,1087.4,873.2z"/>
					<path fill="#8D5E2D" d="M1093.7,846.8c0,0-1.7,8.6-6.2,13.8c-4.5,5.2-6.9,7.6-7.1,8.8c-0.2,1.2,2.3-1.2,4.2,0.8
						c1.9,2,1.7,4.2,1.7,4.2s7.6-2.2,10.1-4.2c2.4-1.9,2.9-4.5,3.6-5.4c0.7-0.9,7.5-1.9,7.7-6c0.2-4-1.4-14.3-1.4-14.3
						S1098.4,840.7,1093.7,846.8z"/>
					<path fill="#3C2415" d="M1099.4,844L1099.4,844c0,0-2.2,10.5-3.6,14.3c0,0,0,0,0,0c-0.1,0.2-3.1,7.1-11.5,11.4
						c-0.1,0-0.1,0.1-0.2,0.2c0.1,0.1,0.3,0.2,0.4,0.3c0.1,0.2,0.3,0.3,0.4,0.5c7.3-3.8,10.6-9.4,11.6-11.3c1,0.7,3.2,2.5,4.5,4.8
						c0.3-0.1,0.7-0.3,1.1-0.4c-1.5-2.8-4.1-4.8-5.1-5.5c1.5-4.3,3.5-14,3.5-14.1c0.1-0.3-0.1-0.6-0.5-0.7
						C1099.8,843.4,1099.5,843.6,1099.4,844z M1104.2,843.9c0,0.1-0.1,0.2-0.1,0.3c0,0,2.2,14.2,1.4,17.9c0.5-0.3,1-0.7,1.3-1.2
						c0.3-5-1.3-15-1.5-16.7C1105,844.1,1104.6,844,1104.2,843.9z"/>
				</g>
				<path fill="#3C2415" d="M1103.9,721.3c0,0-29.5,57.5-20,91.4c9.5,33.9,9.5,33.9,9.5,33.9s34.5,21.4,69.4,16.5
					c34.9-4.9,36.7-19.4,36.7-19.4s-32.7-29.9-37.5-64.4c-4.8-34.5-4-50.6-4-50.6L1103.9,721.3z"/>
				<path fill="#EC9123" d="M1171.7,638.8c-0.4-3.8-1.3-7.5-3.9-10.6c-3.1-3.7-6.8-6.9-10.7-9.6l-19.6,4.3l-25.2,26
					c0,0-9.6,34.9-9.6,76c0,0,34.9,17.2,55.9,12c0,0,1.1-40.6,5.5-62.5c2.7-1.8,6.2-4.6,6.5-6.7c0.3-2.2-0.4-4.3-0.5-6.4
					c-0.1-2.2,0.6-3.9,1.2-6c0.7-2.1,1.1-4.7,0.9-7C1172,645.2,1172,642,1171.7,638.8z"/>
				<path fill="#CCCCCC" d="M1158.5,619.9c0,0,2.5,4.3,2.2,7c-0.3,2.8-2.5,8.6-2.5,8.6l-9-8.8c0,0-2.5,3.8-5.3,3.3
					c-2.8-0.5-4.6-2.5-4.6-2.5s-6.8,7.6-7.7,7.6c-0.9,0-6.5-7.3-5.9-11.1c0.6-3.8,3.7-8.1,11.8-8.1
					C1145.5,615.9,1152.9,613.9,1158.5,619.9z"/>
				<path fill="#FEC986" d="M1150.4,620.2c0-2.8-1.9-7.6-1.9-7.6l-4-0.3v0l-0.3,0l-0.3,0v0l-4,0.3c0,0-1.9,4.7-1.9,7.6
					c0,2.3,4.3,3.5,5.9,3.8v0.1c0,0,0.1,0,0.3-0.1c0.2,0,0.3,0.1,0.3,0.1V624C1146.1,623.7,1150.4,622.5,1150.4,620.2z"/>
				<path fill="#FEC986" d="M1130,592c-0.2,2.8-1.4,4.9-2.7,4.9c-1.3-0.1-2.2-2.4-2-5.2c0.2-2.8,1.4-4.9,2.7-4.9
					C1129.3,586.9,1130.2,589.2,1130,592z"/>
				
					<ellipse transform="matrix(0.9974 7.167891e-002 -7.167891e-002 0.9974 45.5968 -81.8558)" fill="#FEC986" cx="1163.3" cy="594.4" rx="2.4" ry="5"/>
				<path fill="#FEC986" d="M1164.8,575.7c-3.6,2.4-6.4,2.6-6.4,2.6l0.6-2.8l-3.6,2.2c0,0,1.6-3.7-0.3-3.1c-1.7,0.5-6.7,0.5-8.2,0.5
					c-1.4-0.2-6.4-0.9-8-1.7c-1.8-0.9-0.8,3-0.8,3l-3.2-2.7l0.2,2.9c0,0-2.8-0.6-6-3.5c0,0-3.1,25.3,0.1,33c3,7.2,10.4,8.6,14.5,9
					l0,0c0.1,0,0.3,0,0.4,0c0.1,0,0.3,0,0.4,0l0,0c4,0.2,11.6-0.2,15.6-6.8C1164.3,601.2,1164.8,575.7,1164.8,575.7z"/>
				<path fill="#FFFFFF" d="M1155.4,589.6c0,0-1.9-0.2-3.9,1.6c-2.1,1.8-1.9,2.7-2,2.8c-0.1,0.1-0.1,0.3,0.5,0.3c0.6,0,3.5,2.2,6,1
					c2.5-1.2,2.6-4.4,2.6-4.4S1157.5,589.6,1155.4,589.6z"/>
				<path fill="#1A1A1A" d="M1150,585.6c0,0,0.3,1.6,2.5,1.2c2.3-0.4,6.2-2.4,8.4-1.9c2.2,0.5,0.2-1.5-2.9-1.6
					C1154.9,583.1,1150,585.6,1150,585.6z"/>
				<path fill="#1A1A1A" d="M1143.5,583.7c0,0-0.3,1.6-2.5,1.1c-2.2-0.5-6.2-2.6-8.3-2.2c-2.2,0.4-0.1-1.5,2.9-1.6
					C1138.7,581.1,1143.5,583.7,1143.5,583.7z"/>
				<path fill="#1A1A1A" d="M1120.5,616.8c0,0-3.2,2.1-1.5,12.7c1.7,10.5,9,13.7,6.6,20.3c-2.4,6.6,4.3,7.9,4.3,7.9
					s-3.2-2.3-0.6-6.4c2.5-4.1,8.1-7.8,5.1-16.3c-3-8.5-0.5-18.1,1.4-18.9C1137.5,615.3,1130,611.6,1120.5,616.8z"/>
				<path fill="#1A1A1A" d="M1123,626.7c0,0,1.2,6.1-1.6,10.7c-2.8,4.6-5.8,14.6-0.6,20.2c5.2,5.6,6,8.8,6,8.8s1.9-5.5-1.5-10.3
					c-3.4-4.8,2.5-11.3,4.1-16.2C1131,635,1129.4,628.2,1123,626.7z"/>
				<path fill="#1A1A1A" d="M1124.8,615.8c0,0-0.4,4.9-3.5,7.9c-3.1,2.9-7.5,9.9-4.7,15.3c2.8,5.4,2.8,8,2.8,8s2.6-3.8,1-8.2
					c-1.6-4.4,4.3-8.1,6.5-11.5C1129.1,623.8,1129.4,618.2,1124.8,615.8z"/>
				<path fill="#1A1A1A" d="M1135.7,604.6c0,0,4,0.8,10.8-0.4c6.8-1.1,8.4-3.1,8.4-3.1s-2.2,10-9.8,9.9
					C1137.3,610.8,1135.7,604.6,1135.7,604.6z"/>
				<path fill="#FFFFFF" d="M1138.6,605.3l-0.1,1.1c0,0,2.8,0.5,7.9-0.2c5.1-0.7,5.5-1.4,5.5-1.4l-0.2-1.3c0,0-1.7,1.6-7,1.9
					C1139.5,605.8,1138.6,605.3,1138.6,605.3z"/>
				<path fill="#1A1A1A" d="M1149.2,593.5c0,0,1.9-3.9,5.2-4.3c3.3-0.4,4.8,1.7,4.8,1.7s-0.1,1.4-1.1,2.8c-1,1.4-3.1,2.1-3.1,2.1
					s2.1-1.8,2.6-3.1c0.5-1.3,0.5-1.7,0.5-1.7s-1.4-1.3-3.8-0.9c-2.3,0.4-4.8,3.5-4.8,3.8C1149.5,594.3,1149,594.2,1149.2,593.5z"/>
				<path fill="#1A1A1A" d="M1154.2,588.4c0,0-3.1,1.6-4.4,4.6l-0.6,0.5C1149.2,593.5,1149.7,589.9,1154.2,588.4z"/>
				<path fill="#1A1A1A" d="M1152.8,590.3c-0.1,0-0.2,0-0.2,0c0.2,0.2,0.4,0.6,0.4,0.9c0,0.7-0.6,1.3-1.3,1.3c-0.2,0-0.4,0-0.5-0.1
					c0.2,0.8,0.9,1.4,1.7,1.4c1,0,1.8-0.8,1.8-1.8C1154.7,591.1,1153.8,590.3,1152.8,590.3z"/>
				<path fill="#FFFFFF" d="M1135.8,588.1c0,0,1.9,0,3.8,2c1.9,2,1.6,2.9,1.8,3c0.1,0.1,0,0.3-0.6,0.2c-0.6-0.1-3.7,1.9-6,0.4
					c-2.4-1.4-2.2-4.7-2.2-4.7S1133.7,588,1135.8,588.1z"/>
				<path fill="#1A1A1A" d="M1141.6,592.7c0,0-1.5-4.1-4.8-4.8c-3.3-0.7-4.9,1.3-4.9,1.3s0,1.4,0.9,2.9c0.9,1.5,2.9,2.4,2.9,2.4
					s-1.9-2-2.3-3.3c-0.4-1.4-0.3-1.7-0.3-1.7s1.6-1.2,3.8-0.5c2.3,0.6,4.5,4,4.4,4.3C1141.3,593.4,1141.8,593.3,1141.6,592.7z"/>
				<path fill="#1A1A1A" d="M1137.1,587.1c0,0,2.9,1.9,4,5l0.5,0.5C1141.6,592.7,1141.5,589,1137.1,587.1z"/>
				<path fill="#1A1A1A" d="M1135.2,588.4c-0.1,0-0.1,0.1-0.2,0.1c0.3,0.2,0.4,0.5,0.5,0.9c0.1,0.7-0.5,1.4-1.2,1.5
					c-0.2,0-0.4,0-0.6-0.1c0.3,0.8,1,1.3,1.9,1.3c1-0.1,1.7-1,1.6-2C1137.1,589.1,1136.2,588.3,1135.2,588.4z"/>
				<g>
					<path fill="#448CCB" d="M1142.5,710.5c0,0,2.4-30.9,0-42.4c0,0,20.3,12.3,28,21.2v36.9C1170.6,726.3,1153.7,712.8,1142.5,710.5
						z"/>
					<path fill="#3772A6" d="M1170.6,689.4c0,0,9.6-9.1,27.1-19.2c0,0-2.1,19.7-2.7,36.8l-24.4,19.4V689.4z"/>
					<path fill="#FEC986" d="M1151.6,694.2c1.5-0.2,3.6-1.8,2.3-3.4c-0.5-0.7-1.8-1.1-2.6-1.3c0.8-0.3,1.7-0.3,2-1.3
						c0.3-1-0.3-2.2-1-2.8c-0.7-0.7-1.7-0.5-2.6-0.6c1.2-0.3,2.5-0.9,1.8-2.4c-1.5-3.2-6.4-1.4-9-0.8c0,0,0,0-0.1,0
						c-3.1,0.8-4.9,3.2-5.5,6.3c-0.4,2.2,0.2,5.6,1.1,7.7c0.9,2,2.6,3.9,4.6,4.8c2.5,1,6.1-0.3,8.7-0.7c1.5-0.2,3.2-0.8,3.2-2.6
						C1154.7,695.5,1153.1,694.1,1151.6,694.2z"/>
					<path fill="#FEC986" d="M1188.4,694.2c-1.5-0.2-3.6-1.8-2.3-3.4c0.5-0.7,1.8-1.1,2.6-1.3c-0.8-0.3-1.7-0.3-2-1.3
						c-0.3-1,0.3-2.2,1-2.8c0.7-0.7,1.7-0.5,2.6-0.6c-1.2-0.3-2.5-0.9-1.8-2.4c1.5-3.2,6.4-1.4,9-0.8c0,0,0,0,0.1,0
						c3.1,0.8,4.9,3.2,5.5,6.3c0.4,2.2-0.2,5.6-1.1,7.7c-0.9,2-2.6,3.9-4.6,4.8c-2.5,1-6.1-0.3-8.7-0.7c-1.5-0.2-3.2-0.8-3.2-2.6
						C1185.3,695.5,1186.9,694.1,1188.4,694.2z"/>
				</g>
			</g>
			<g>
				<path fill="#E3322B" d="M244.7,589.6c0,0-37.7,7.6-51.7,42.6c-14,35.1,22.7,45.7,32.3,42.8l0.2-12.8c0,0-21-4.5-16.8-21.5
					c4.3-17,21.3-16.6,21.3-16.6L244.7,589.6z"/>
				<path fill="#E3322B" d="M288.7,598.4c0,0,26.5,25.8,19.3,52.7c-7.2,26.9-31.8,25.8-31.8,25.8v-18.3c0,0,18.1,2.9,14.4-18.4
					c-3.6-20.5-10.4-27.8-10.4-27.8L288.7,598.4z"/>
				<g>
					<g>
						<path fill="#3C2415" d="M189.6,876.2l-4.8,1.9c0,0-1.5,5.3,2.1,6.5c3.6,1.3,12,4.4,19.1,1.5c7.1-2.9,4.5-2.4,4.5-2.4
							s0.9-4.1,4.2-3.7c3.3,0.4,1.4,2.3,1.4,2.3s7.9,0.1,10.5-3.7c2.6-3.9,0-7.1,0-7.1L189.6,876.2z"/>
						<path fill="#8D5E2D" d="M228.1,854.8l-0.8,18.1l-2,1.7c0,0-4.4,5-9.3,4c-4.9-1-4.7,2-10.8,3.3c-6.2,1.3-22.4,1.8-21.1-6.8
							c1.3-8.6,6.7-8,14.5-10.6c7.8-2.7,10.5-16.1,10.5-16.1S227.3,844,228.1,854.8z"/>
						<path fill="#3C2415" d="M214.1,857.3c0,0.6-0.4,1.2-0.8,1.2c-0.5,0-0.9-0.5-0.9-1.2c0-0.6,0.4-1.2,0.9-1.2
							C213.7,856.1,214.1,856.6,214.1,857.3z"/>
						<ellipse fill="#3C2415" cx="209.9" cy="863.4" rx="0.8" ry="1.2"/>
						<ellipse fill="#3C2415" cx="204.9" cy="867.2" rx="0.8" ry="1.2"/>
						<ellipse fill="#3C2415" cx="201" cy="864.4" rx="0.8" ry="1.2"/>
						<ellipse fill="#3C2415" cx="204.8" cy="860.6" rx="0.8" ry="1.2"/>
						<path fill="#3C2415" d="M208.5,856.6c0,0.6-0.4,1.2-0.9,1.2c-0.5,0-0.8-0.5-0.8-1.2c0-0.6,0.4-1.2,0.8-1.2
							C208.1,855.4,208.5,855.9,208.5,856.6z"/>
						<g>
							<path fill="#3C2415" d="M211.8,868.6c-0.2-0.1-0.4-0.3-0.3-0.5l0,0c0.1-0.3,0.1-0.7,0.1-1.1l0,0c0-3-2.3-7.3-2.9-10.1l0,0
								c0-0.1-0.1-0.3-0.1-0.4l0,0c0-0.1,0-0.1,0-0.2l0,0l-0.5-0.2l2.1,7.2c0,0.2,0,0.3-0.1,0.4l0,0c-0.1,0.1-0.3,0.1-0.5,0l0,0
								l-4.5-2.4l0.1,5.9v0l0,0l0,0v0c0,0.2-0.2,0.4-0.4,0.4l0,0c-0.2,0-0.4-0.2-0.4-0.4l0,0c0,0,0,0,0,0l0,0h0l0-0.1
								c-0.1-1.4-3.6-2.2-3.6-2.2l0,0c-0.2,0-0.4-0.3-0.3-0.5l0,0c0-0.2,0.3-0.4,0.5-0.3l0,0c0,0,2.2,0.4,3.4,1.5l0,0l-0.1-5
								c0-0.2,0.1-0.3,0.2-0.4l0,0c0.1-0.1,0.3-0.1,0.4,0l0,0l4.2,2.3l-2-7c0-0.1,0-0.1,0-0.2l0,0c0,0-0.1,0-0.1,0l0,0
								c-0.9,0-1.7-0.1-2.4-0.2l0,0c-0.6-0.2-1,0-1.3-0.8l0,0c0.1-0.5,0.4-0.5,0.6-0.5l0,0c0.2,0,0.5-0.1,0.9-0.1l0,0
								c0.9,0,2.3,0.3,3.7,0.7l0,0c0.7-0.1,1.4-0.3,2-0.5l0,0c0.6-0.2,1.1-0.4,1.5-0.4l0,0c1.3,0,1.7,1.2,1.7,2.1l0,0
								c0,0.4-0.1,0.9-0.1,1.2l0,0c2,1.4,3.6,3.2,3.6,5.4l0,0c0,0.1,0,0.1,0,0.1l0,0c0,0.8-0.3,1.4-1,1.4l0,0
								c-1.9-0.2-5.3-5.1-6.8-6.7l0,0c0.7,2.6,2.8,6.7,2.8,9.9l0,0c0,0.4,0,0.9-0.1,1.3l0,0C212.3,868.4,212.1,868.6,211.8,868.6
								L211.8,868.6C211.9,868.6,211.9,868.6,211.8,868.6L211.8,868.6z M212.8,859.5c1.4,1.8,3.2,3.5,3.6,3.4l0,0c0,0,0.1,0,0.2-0.6
								l0,0c0-0.1,0-0.1,0-0.1l0,0c0-1.7-1.3-3.3-3.1-4.6l0,0c0,0,0,0-0.1,0l0,0c-0.1,0.1-0.2,0.1-0.3,0l0,0l-2.6-0.8
								C211.2,857.5,211.9,858.5,212.8,859.5L212.8,859.5z M213,856.3c0-0.2,0.1-0.5,0.1-0.7l0,0c0-0.8-0.1-1.2-0.9-1.2l0,0
								c-0.3,0-0.7,0.1-1.2,0.3l0,0c-0.3,0.1-0.5,0.2-0.8,0.3l0,0C211.2,855.3,212.1,855.8,213,856.3L213,856.3z M210.2,855.8
								c-0.5-0.2-1.1-0.4-1.6-0.6l0,0c0,0-0.1,0-0.1,0l0,0L210.2,855.8L210.2,855.8z"/>
						</g>
						<g>
							<path fill="#3C2415" d="M199.8,863.7c-0.2-0.1-0.3-0.4-0.1-0.6l0,0c2.4-3.7,9.5-4.7,9.2-7.2l0,0c0-0.1,0-0.2,0-0.2l0,0
								c-1-0.1-5.3,4.7-7.2,4.8l0,0c-0.5,0-0.9-0.5-0.9-1l0,0c0-0.1,0-0.2,0-0.2l0,0c0.2-3.6,7.9-4.8,7.9-4.9l0,0
								c0.2,0,0.4,0.1,0.5,0.3l0,0c0,0.1,0,0.1,0,0.2l0,0c0.4,0.1,0.6,0.6,0.6,1l0,0c-0.3,3.7-7.4,4.2-9.3,7.6l0,0
								c-0.1,0.1-0.2,0.2-0.4,0.2l0,0C200,863.8,199.9,863.8,199.8,863.7L199.8,863.7z M201.5,859.3c0,0.1,0,0.1,0,0.1l0,0
								c0.1,0.2,0,0.2,0.1,0.2l0,0c0.9,0.1,3.6-2.6,5.6-4l0,0C205.1,856.3,201.3,857.7,201.5,859.3L201.5,859.3z"/>
						</g>
					</g>
				</g>
				<g>
					<path fill="#3C2415" d="M366.2,849.4l5.1,1.2c0,0,2.3,5-1.1,6.8c-3.4,1.8-11.2,6.2-18.6,4.3c-7.4-1.8-4.8-1.7-4.8-1.7
						s-1.5-3.9-4.7-3c-3.2,0.9-1,2.4-1,2.4s-7.8,1.3-10.9-2.1c-3.1-3.4-1.1-7-1.1-7L366.2,849.4z"/>
					<path fill="#8D5E2D" d="M325,833.9l3.5,17.8l2.2,1.4c0,0,5.1,4.3,9.8,2.6c4.7-1.7,4.9,1.3,11.2,1.7c6.3,0.3,22.4-1.6,19.8-9.9
						c-2.6-8.3-7.8-6.9-15.9-8.4c-8.1-1.5-12.8-14.4-12.8-14.4S324.2,823.2,325,833.9z"/>
					<path fill="#3C2415" d="M339.2,834.3c0.1,0.6,0.5,1.1,1,1c0.5-0.1,0.8-0.6,0.7-1.3c-0.1-0.6-0.5-1.1-1-1
						C339.4,833.1,339.1,833.7,339.2,834.3z"/>
					
						<ellipse transform="matrix(-0.9889 0.1486 -0.1486 -0.9889 809.4031 1618.9822)" fill="#3C2415" cx="344.2" cy="839.7" rx="0.8" ry="1.2"/>
					<path fill="#3C2415" d="M348.9,842.9c0.1,0.6,0.5,1.1,1,1c0.5-0.1,0.8-0.6,0.7-1.3c-0.1-0.6-0.5-1.1-1-1
						C349.1,841.7,348.8,842.3,348.9,842.9z"/>
					
						<ellipse transform="matrix(-0.9889 0.1485 -0.1485 -0.9889 827.2203 1617.1729)" fill="#3C2415" cx="353.2" cy="839.5" rx="0.8" ry="1.2"/>
					
						<ellipse transform="matrix(-0.9889 0.1485 -0.1485 -0.9889 818.001 1611.3687)" fill="#3C2415" cx="348.8" cy="836.2" rx="0.8" ry="1.2"/>
					<path fill="#3C2415" d="M344.7,832.8c0.1,0.6,0.5,1.1,1,1c0.5-0.1,0.8-0.6,0.7-1.3c-0.1-0.6-0.5-1.1-1-1
						C344.9,831.6,344.6,832.2,344.7,832.8z"/>
					<g>
						<path fill="#3C2415" d="M343.1,845.1C343.1,845.2,343,845.2,343.1,845.1L343.1,845.1c-0.3,0.1-0.5,0-0.5-0.2l0,0
							c-0.2-0.4-0.3-0.8-0.3-1.2l0,0c-0.5-3.2,1.1-7.5,1.3-10.2l0,0c-1.3,1.7-3.9,7.2-5.7,7.6l0,0c-0.7,0.1-1.1-0.5-1.2-1.3l0,0
							c0-0.1,0-0.1,0-0.1l0,0c-0.3-2.2,1-4.2,2.8-5.9l0,0c-0.1-0.3-0.2-0.7-0.3-1.2l0,0c-0.1-0.9,0.1-2.1,1.4-2.3l0,0
							c0.4-0.1,0.9,0,1.5,0.1l0,0c0.7,0.2,1.4,0.2,2.1,0.2l0,0c1.3-0.6,2.6-1.1,3.5-1.2l0,0c0.4-0.1,0.7-0.1,0.9-0.1l0,0
							c0.2,0,0.5-0.1,0.7,0.4l0,0c-0.1,0.8-0.6,0.7-1.1,1l0,0c-0.6,0.2-1.4,0.4-2.3,0.6l0,0c0,0-0.1,0-0.1,0l0,0c0,0.1,0,0.1,0,0.2
							l-1,7.2l3.8-2.9l0,0c0.1-0.1,0.3-0.1,0.4,0l0,0c0.1,0.1,0.2,0.2,0.2,0.3l0.7,4.9l0,0c1.1-1.4,3.2-2,3.2-2l0,0
							c0.2-0.1,0.5,0,0.5,0.3l0,0c0.1,0.2,0,0.5-0.3,0.5l0,0c0,0-3.3,1.4-3.2,2.7l0,0.1l0,0l0,0c0,0,0,0,0,0l0,0
							c0,0.2-0.1,0.4-0.4,0.5l0,0c-0.2,0-0.4-0.1-0.5-0.4l0,0l0,0l0,0v0l-0.8-5.9l-4.1,3.1l0,0c-0.1,0.1-0.3,0.1-0.5,0l0,0
							c-0.1-0.1-0.2-0.3-0.2-0.4l1-7.4l-0.5,0.2l0,0c0,0.1,0.1,0.2,0.1,0.2l0,0c0,0.1,0,0.2,0,0.4l0,0c-0.2,2.9-1.8,7.5-1.4,10.5
							l0,0c0.1,0.4,0.1,0.7,0.3,1.1l0,0C343.4,844.8,343.3,845.1,343.1,845.1L343.1,845.1z M340.8,836.3c0.7-1.1,1.3-2.2,1.8-3
							l-2.4,1.2l0,0c-0.1,0-0.2,0.1-0.3,0l0,0c0,0,0,0-0.1,0l0,0c-1.6,1.5-2.7,3.3-2.4,5l0,0c0,0,0,0.1,0,0.1l0,0
							c0.2,0.6,0.3,0.6,0.3,0.6l0,0C338.1,840.3,339.6,838.3,340.8,836.3L340.8,836.3z M340.1,833.2c0.8-0.7,1.7-1.3,2.6-1.8l0,0
							c-0.3,0-0.6-0.1-0.9-0.2l0,0c-0.6-0.1-1-0.2-1.2-0.1l0,0c-0.7,0.1-0.8,0.6-0.7,1.4l0,0C340,832.7,340,833,340.1,833.2
							L340.1,833.2z M342.8,832.3l1.6-0.8l0,0c0,0-0.1,0-0.2,0l0,0C343.8,831.7,343.3,832,342.8,832.3L342.8,832.3z"/>
					</g>
					<g>
						<path fill="#3C2415" d="M354.3,838.6c-0.1,0-0.1,0.1-0.2,0.1l0,0c-0.1,0-0.3,0-0.4-0.1l0,0c-2.4-3.1-9.6-2.6-10.4-6.2l0,0
							c-0.1-0.4,0.1-0.9,0.5-1.1l0,0c0,0,0-0.1,0-0.2l0,0c0-0.2,0.2-0.4,0.4-0.4l0,0c0,0.1,7.8,0.1,8.5,3.6l0,0c0,0.1,0,0.1,0,0.2
							l0,0c0.1,0.5-0.3,1-0.8,1.1l0,0c-1.9,0.2-6.9-3.9-7.8-3.7l0,0c0,0,0,0.1,0,0.2l0,0c0.1,2.5,7.2,2.4,10.2,5.7l0,0
							C354.5,838.2,354.4,838.4,354.3,838.6L354.3,838.6z M351.9,834.5c-0.1-1.7-3.9-2.4-6.2-2.8l0,0c2.2,1.1,5.3,3.4,6.1,3.1l0,0
							c0.1-0.1,0,0,0.1-0.2l0,0C351.9,834.6,351.9,834.5,351.9,834.5L351.9,834.5z"/>
					</g>
				</g>
				<path fill="#3C2415" d="M271.6,711.2c0,0,41.2,41.6,48.7,50.9c7.5,9.3,20.4,66.3,20.4,66.3s-5.3,8.1-11.1,3.7
					c-5.8-4.4-16.8-44.7-26.1-60.7c-9.3-15.9-36.8-32.3-56.3-35c-19.5-2.7-22.6,115.6-22.6,115.6s-6.6,6.6-11.1-1.8
					c-4.4-8.4-11.1-126.3-9.3-148C206,680.7,271.6,711.2,271.6,711.2z"/>
				<path fill="#E3322B" d="M284.6,646.3c0.1-0.5,0.2-1.1,0.3-1.8c0.8-4.8,1.9-8.7,3.2-11.2c0.7-2.4,1.6-5.1,2.6-8.4
					c3.5-11.6,0.8-20.9-1.9-26.5c-18-11.1-38.9-9-38.9-9c-46.1-3.1-47,112.1-47,112.1s7.1,16.8,37.7,22.2
					c30.6,5.3,40.8-9.7,40.8-9.7S280.7,670.6,284.6,646.3z"/>
				<path fill="#CCCCCC" d="M238.8,594.4c0,0-2.7,4.7-2.4,7.8c0.3,3,2.7,9.4,2.7,9.4l9.9-9.7c0,0,2.7,4.2,5.8,3.6
					c3.1-0.6,5.1-2.8,5.1-2.8s7.5,8.3,8.5,8.3c1,0,7.2-8,6.5-12.2c-0.7-4.2-4.1-8.9-12.9-8.9C253.1,589.9,244.9,587.7,238.8,594.4z"
					/>
				<path fill="#FEC986" d="M261.4,594.7c0.4-3.1-1.1-8.5-1.1-8.5l-4.3-0.9l0-0.1l-0.3,0l-0.3-0.1l0,0.1l-4.4-0.1c0,0-2.6,4.9-3,8
					c-0.3,2.6,4.3,4.4,5.9,4.9l0,0.1c0,0,0.1,0,0.3,0c0.2,0.1,0.3,0.1,0.3,0.1l0-0.1C256.2,598,261.1,597.3,261.4,594.7z"/>
				
					<ellipse transform="matrix(0.9936 0.1127 -0.1127 0.9936 64.868 -23.2853)" fill="#FEC986" cx="238.4" cy="562.1" rx="2.6" ry="5.5"/>
				<path fill="#FEC986" d="M280.1,566.8c-0.3,3-1.8,5.4-3.2,5.2c-1.4-0.2-2.3-2.8-2-5.8c0.3-3,1.8-5.4,3.2-5.2
					C279.5,561.2,280.4,563.8,280.1,566.8z"/>
				<path fill="#603913" d="M238.4,566.7c0,0-2.7-6.1-2.9-13.2c-0.2-7.1,0.7-7.9,0.7-7.9s-1.8,0.2-1.5-2.1c0.3-2.3,2.9-5,3.3-5.4
					c0.3-0.4-1.4-0.7,0.3-2.9c0,0-2.1-5.3,4.2-9.3c6.2-4,16.4,0.2,21,1.5c0,0,1.7-1.6,4.4-0.8c2.7,0.8,7.6,4,8.1,4.2
					c0.6,0.2,2.2-1.2,3.9-0.3c1.7,0.9,3,3.3,3.3,3.8c0.2,0.5,2.5,0.1,2.8,2.7c0.3,2.6,0.2,10.4-0.9,13.5c-1.1,3.1,0.6,1.7,0,4.3
					c-0.6,2.6-3.5,9.8-6.3,12.6C275.9,570,238.4,566.7,238.4,566.7z"/>
				<path fill="#FEC986" d="M279.9,546c-4,2.5-7.2,2.5-7.2,2.5l0.8-3l-4,2.3c0,0,1.9-4-0.2-3.4c-1.9,0.5-7.4,0.3-9,0.2
					c-1.5-0.3-7-1.3-8.7-2.2c-2-1.1-1,3.2-1,3.2l-3.4-3.1l0.1,3.1c0,0-3-0.8-6.4-4.1c0,0-4.6,27.7-1.4,36.2c3,8,11.1,9.9,15.5,10.5
					l0,0c0.1,0,0.3,0,0.4,0c0.1,0,0.3,0,0.4,0.1l0,0c4.4,0.4,12.7,0.3,17.5-6.8C278.2,574.1,279.9,546,279.9,546z"/>
				<g>
					<path fill="#FFFFFF" d="M251.7,558.5c0,0-1.5-1.8-4.2-1.5c-2.8,0.3-5.8,2.9-4.8,4.3c1,1.4,3.3,3.1,6.5,2.8
						c3.2-0.3,4.1-2.6,4-2.9S251.7,558.5,251.7,558.5z"/>
					<path fill="#1A1A1A" d="M247.7,563.6c-2.6-0.3-4.5-1.9-4.8-3.7c-0.1,0.2-0.2,0.5-0.2,0.8c-0.2,2.1,3,3.3,5.1,3.6
						c2.1,0.2,5.2-0.2,5.5-2.4c0-0.3,0-0.5,0-0.8C252.5,562.8,250.2,563.9,247.7,563.6z"/>
					<path fill="#1A1A1A" d="M243.9,558.6c0,0,1.7-1.4,4.1-1.2c2.4,0.2,4.3,2.5,4.5,3.2c0.2,0.8,0.3,1.3,0.3,1.3l0.3-0.9
						c0,0-0.1-3.5-3.5-4.3C246.3,556,243.9,558.6,243.9,558.6z"/>
					<path fill="#1A1A1A" d="M249.2,560.9c-0.7-0.1-1.2-0.7-1.1-1.4c0.1-0.5,0.4-0.9,0.8-1c-0.2-0.1-0.4-0.2-0.7-0.2
						c-1.1-0.1-2.2,0.7-2.3,1.8c-0.1,1.1,0.7,2.2,1.8,2.3c1.1,0.1,2.1-0.6,2.3-1.7C249.8,560.8,249.5,560.9,249.2,560.9z"/>
					<path fill="#1A1A1A" d="M252.6,557.7c0,0,1.2,2.6,0,4.8l0.6-0.7C253.2,561.9,253.9,559.3,252.6,557.7z"/>
				</g>
				<g>
					<path fill="#FFFFFF" d="M265.4,559.9c0,0,1.8-1.5,4.5-0.5c2.6,0.9,5,4.1,3.7,5.2c-1.3,1.1-3.9,2.3-6.9,1.3
						c-3-1-3.4-3.4-3.2-3.8C263.5,561.8,265.4,559.9,265.4,559.9z"/>
					<path fill="#1A1A1A" d="M268.2,565.8c2.6,0.3,4.8-0.8,5.5-2.5c0,0.3,0,0.5,0,0.8c-0.2,2.1-3.7,2.6-5.8,2.3
						c-2.1-0.2-5-1.4-4.8-3.5c0-0.3,0.1-0.5,0.2-0.8C263.7,564,265.6,565.5,268.2,565.8z"/>
					<path fill="#1A1A1A" d="M272.9,561.8c0,0-1.4-1.7-3.7-2.1c-2.4-0.4-4.8,1.4-5.2,2.1c-0.4,0.7-0.6,1.2-0.6,1.2l-0.1-0.9
						c0,0,0.9-3.4,4.4-3.4C271.2,558.7,272.9,561.8,272.9,561.8z"/>
					<path fill="#1A1A1A" d="M267.3,562.9c0.7,0.1,1.3-0.4,1.4-1.1c0.1-0.5-0.2-0.9-0.6-1.2c0.2-0.1,0.5-0.1,0.7-0.1
						c1.1,0.1,2,1.2,1.8,2.3c-0.1,1.1-1.2,2-2.3,1.8c-1.1-0.1-1.9-1.1-1.8-2.2C266.7,562.7,267,562.8,267.3,562.9z"/>
					<path fill="#1A1A1A" d="M264.7,559c0,0-1.7,2.3-1.1,4.7l-0.5-0.8C263.2,562.9,263.1,560.3,264.7,559z"/>
				</g>
				<path fill="#1A1A1A" d="M243.9,554.3c0,0,3.1-1.2,5-1.2c1.9,0,4.6,1.6,5.4,1.1c0.9-0.5,0.2-1.7,0.2-1.7s-3.3-1.4-6-1.2
					C245.7,551.6,243.9,554.3,243.9,554.3z"/>
				<path fill="#1A1A1A" d="M275.9,557.1c0,0-3-1.5-4.9-1.7c-1.9-0.2-4.7,1.1-5.5,0.5c-0.8-0.5,0-1.7,0-1.7s3.4-1.1,6.1-0.5
					C274.3,554.2,275.9,557.1,275.9,557.1z"/>
				<path fill="#1A1A1A" d="M244.9,576.2c0,0,0.4-2,1.6-1.8c1.2,0.1,6,4.3,11.8,3.7c5.8-0.6,8.3-2.2,8.3-2.2s1.6,0.3,2.1,1
					c0.5,0.6-4.8,9.7-13.7,8.6C246.1,584.4,244.9,576.2,244.9,576.2z"/>
				<path fill="#F0512F" d="M251.4,583.2c0,0,1.8-0.9,4.6-0.8c2.8,0.2,5,1.4,5,1.4s-1.2,1.1-4.7,0.7
					C252.7,584.2,251.4,583.2,251.4,583.2z"/>
				<path fill="#FFFFFF" d="M249.1,576.7l-0.1,1c0,0,2.2,1.6,7.8,1.9c5.6,0.3,8.3-0.7,8.3-0.7l-0.4-1c0,0-3.7,1.5-8.7,0.9
					C251,578.1,249.1,576.7,249.1,576.7z"/>
				<g>
					<path fill="#448CCB" d="M223.2,687.6c0,0,2.5-31.7,0-43.5c0,0,20.8,12.6,28.8,21.8v37.9C252,703.8,234.6,690,223.2,687.6z"/>
					<path fill="#3772A6" d="M252,665.9c0,0,9.9-9.4,27.9-19.8c0,0-2.2,20.2-2.8,37.8L252,703.8V665.9z"/>
					<path fill="#FEC986" d="M232.5,670.9c1.5-0.2,3.7-1.8,2.4-3.5c-0.5-0.7-1.9-1.1-2.6-1.4c0.9-0.3,1.8-0.3,2.1-1.3
						c0.3-1-0.3-2.2-1.1-2.9c-0.7-0.7-1.7-0.5-2.6-0.6c1.3-0.3,2.6-0.9,1.9-2.5c-1.6-3.3-6.6-1.4-9.2-0.8c0,0,0,0-0.1,0
						c-3.2,0.8-5,3.3-5.6,6.5c-0.4,2.3,0.2,5.8,1.1,7.9c0.9,2,2.6,4,4.7,4.9c2.6,1,6.3-0.3,8.9-0.7c1.6-0.2,3.3-0.8,3.3-2.7
						C235.7,672.2,234,670.7,232.5,670.9z"/>
					<path fill="#FEC986" d="M270.3,670.9c-1.5-0.2-3.7-1.8-2.4-3.5c0.5-0.7,1.9-1.1,2.6-1.4c-0.9-0.3-1.8-0.3-2.1-1.3
						c-0.3-1,0.3-2.2,1.1-2.9c0.7-0.7,1.7-0.5,2.6-0.6c-1.3-0.3-2.6-0.9-1.9-2.5c1.6-3.3,6.6-1.4,9.2-0.8c0,0,0,0,0.1,0
						c3.2,0.8,5,3.3,5.6,6.5c0.4,2.3-0.2,5.8-1.1,7.9c-0.9,2-2.6,4-4.7,4.9c-2.6,1-6.3-0.3-8.9-0.7c-1.6-0.2-3.3-0.8-3.3-2.7
						C267.1,672.2,268.7,670.7,270.3,670.9z"/>
				</g>
			</g>
			<g>
				<path fill="#E3322B" d="M567.1,220.5c0,0-23.6,20.7-34.5,51.7c-1.4,4.1-2,8.5-1.3,12.8c0.7,4.1,2.6,8.8,7.3,11.9l6.1-13.7
					c0,0,1.4-19.6,22.3-27.8S567.1,220.5,567.1,220.5z"/>
				<path fill="#E3322B" d="M612.5,218.8L612.5,218.8c-1.2-0.7-1.8-1.1-1.8-1.1l0,0c-6.5-3.7-12.6-6-12.6-6l-11,4.8
					c0,0,20.1,10.5,20.1,32.5c0,21.1-9.3,40.5-30.4,49.2V314c0.6,0,1.1,0,1.7,0c14.2-0.7,24.9-10.3,32.5-22.9
					c6.1-4.3,12.7-12.6,16-28.3C634,229.2,612.5,218.8,612.5,218.8z"/>
				<path fill="#8B5E3C" d="M556.2,157.4c1-0.1,18.2-8.9,18.2-8.9s-0.2-0.8-0.8-0.9C573,147.5,555.3,157.5,556.2,157.4z"/>
				<path fill="#1A1A1A" d="M575.5,155l-2.9-4.3c0,0-1.8,1.2-3-3.1c-1.2-4.3,2.6-7.2,8.8-7.9c6.2-0.8,11.2,3,9.7,6.3
					c-1.5,3.4-4.5,3.9-4.2,6.9C584.2,156,575.5,155,575.5,155z"/>
				<path fill="#E3322B" d="M586.3,152.1c0.3,2.2-2.7,4.4-6.6,4.9c-3.9,0.5-7.3-1-7.6-3.2c-0.3-2.2,2.7-4.4,6.6-4.9
					C582.6,148.4,586,149.8,586.3,152.1z"/>
				<path fill="#1A1A1A" d="M601.4,180.9c0,0,3.6-8.4-0.1-19.5c-9.2-12.1-21.5-10.3-23.1-10c-1.4,0.1-11.7,1.1-18.1,11.7
					c-1.3,5.6-2,14.6,3.4,22.7C572,198.8,601.4,180.9,601.4,180.9z"/>
				<path fill="#6A4232" d="M528.2,423l-9.1-2.7c0,0-7.7,7.7-0.5,17.8c7.2,10,30.1,16,55.9,13.2c25.8-2.7,42.1-10.5,42.1-10.5
					L528.2,423z"/>
				<g>
					<path fill="#3C2415" d="M622.6,462.5c0,0,1.8,5.2-1.3,7.8c-3.1,2.6-3,1.6-3,1.6s-3.5-0.5-9.1-5c-5.6-4.4-5.1-10.8-5.1-10.8
						l0.8-1.6l-0.7-0.7l-1.3,1.4c0,0-3.1-2.3-3.9-4.1c-0.8-1.7-0.1-3.5-0.1-3.5l2.3-2.6L622.6,462.5z"/>
					<path fill="#FEC986" d="M615,465.3c0,0,1.7,2.9,3.2,3.5c1.5,0.7,1.7-0.2,1.7-0.2s0.4,1.7,2,0.4c1.5-1.3,1.3-4.7-0.1-5.6
						C620.4,462.5,617.2,461.6,615,465.3z"/>
					<path fill="#8D5E2D" d="M618.4,438.5c0,0-1.4,8.7,1,15.1c2.4,6.4,3.8,9.5,3.6,10.7c-0.2,1.2-1.8-1.9-4.2-0.7
						c-2.5,1.2-3.1,3.3-3.1,3.3s-6.4-4.8-8-7.4c-1.6-2.7-1.1-5.2-1.4-6.3c-0.3-1.1-6.3-4.4-5.1-8.3c1.2-3.9,6.3-12.8,6.3-12.8
						S616.2,431.1,618.4,438.5z"/>
					<path fill="#3C2415" d="M613.6,433.1c-0.3-0.1-0.6,0.2-0.7,0.5c0,0-1.5,9.8-1.6,14.4c-1.2,0.3-4.3,1.3-6.7,3.4
						c0.3,0.3,0.6,0.6,0.9,0.8c2-1.7,4.7-2.6,5.9-2.9c0.2,2.1,1.4,8.5,6.9,14.7c0.2-0.1,0.3-0.2,0.5-0.3c0.2-0.1,0.4-0.1,0.5-0.2
						c0-0.1,0-0.2-0.1-0.2c-6.3-7-6.7-14.4-6.7-14.7c0,0,0,0,0,0c0-4.1,1.6-14.7,1.6-14.7l0,0C614.1,433.4,613.9,433.1,613.6,433.1z
						 M608.4,431.9c-0.8,1.5-5.8,10.3-7.3,15.1c0.2,0.6,0.5,1.1,0.8,1.6c0.6-3.8,7.6-16.3,7.7-16.3c0.1-0.1,0-0.2,0-0.3
						C609.2,431.9,608.8,431.9,608.4,431.9z"/>
				</g>
				<g>
					<path fill="#3C2415" d="M550.8,465.9c0,0-3.5,4.2-1.6,7.8c2,3.6,2.3,2.5,2.3,2.5s3.4,0.7,10.3-1.4c6.8-2.2,8.6-8.3,8.6-8.3
						l-0.2-1.8l0.9-0.5l0.8,1.8c0,0,3.7-1.1,5-2.4c1.3-1.4,1.3-3.3,1.3-3.3L577,457L550.8,465.9z"/>
					<path fill="#FEC986" d="M556.9,471.3c0,0-2.6,2.1-4.2,2.2c-1.6,0.1-1.5-0.8-1.5-0.8s-1,1.4-2-0.3c-1-1.7,0.5-4.8,2.1-5.2
						C552.9,466.7,556.2,467,556.9,471.3z"/>
					<path fill="#8D5E2D" d="M563.2,444.9c0,0-1.7,8.6-6.2,13.8c-4.5,5.2-6.9,7.6-7.1,8.8c-0.2,1.2,2.3-1.2,4.2,0.8
						c1.9,2,1.7,4.2,1.7,4.2s7.6-2.2,10.1-4.2c2.4-1.9,2.9-4.5,3.6-5.4c0.7-0.9,7.5-1.9,7.7-6c0.2-4-1.4-14.3-1.4-14.3
						S567.9,438.8,563.2,444.9z"/>
					<path fill="#3C2415" d="M568.9,442L568.9,442c0,0-2.2,10.5-3.6,14.3c0,0,0,0,0,0c-0.1,0.2-3.1,7.1-11.5,11.4
						c-0.1,0-0.1,0.1-0.2,0.2c0.1,0.1,0.3,0.2,0.4,0.3c0.1,0.2,0.3,0.3,0.4,0.5c7.3-3.8,10.6-9.4,11.6-11.3c1,0.7,3.2,2.5,4.5,4.8
						c0.3-0.1,0.7-0.3,1.1-0.4c-1.5-2.8-4.1-4.8-5.1-5.5c1.5-4.3,3.5-14,3.5-14.1c0.1-0.3-0.1-0.6-0.5-0.7
						C569.3,441.5,569,441.7,568.9,442z M573.7,441.9c0,0.1-0.1,0.2-0.1,0.3c0,0,2.2,14.2,1.4,17.9c0.5-0.3,1-0.7,1.3-1.2
						c0.3-5-1.3-15-1.5-16.7C574.5,442.2,574.1,442.1,573.7,441.9z"/>
				</g>
				<path fill="#3C2415" d="M629.6,314.9c0,0,19.1,61.5,4.8,93.4C620,440.3,620,440.3,620,440.3s-36.3,15.5-68.8,5
					c-32.5-10.5-32-25.1-32-25.1s35.9-24.2,45.9-57.4c10-33.3,11-42.4,11-42.4L629.6,314.9z"/>
				<path fill="#E3322B" d="M561.2,233c0.3-3.3,1.2-6.5,3.2-9.3c2.9-4,7.2-7.5,11.3-10.3l19.6,4.3l25.2,26c0,0,9.6,34.9,9.6,76
					c0,0-34.9,17.2-55.9,12c0,0-1.1-40.6-5.6-62.5c-2.7-1.8-6.2-4.6-6.5-6.7c-0.3-2.3,0.4-4.7,0.5-6.9c-3.4-1.1-1.4-9.2-1.4-11.9
					C561.1,240.1,560.9,236.5,561.2,233z"/>
				<path fill="#CCCCCC" d="M571.9,214.2c0,0-2.5,4.3-2.2,7c0.3,2.8,2.5,8.6,2.5,8.6l9-8.8c0,0,2.5,3.8,5.3,3.3
					c2.8-0.5,4.6-2.5,4.6-2.5s6.8,7.6,7.7,7.6c0.9,0,6.5-7.3,5.9-11.1c-0.6-3.8-3.7-8.1-11.8-8.1
					C584.9,210.2,577.4,208.1,571.9,214.2z"/>
				<path fill="#FEC986" d="M591.9,213c-0.3-2.8-2.8-7.3-2.8-7.3l-4,0.2l0,0l-0.3,0.1l-0.3,0l0,0l-3.9,0.8c0,0-1.3,4.9-1,7.7
					c0.3,2.3,4.7,3,6.3,3.1l0,0.1c0,0,0.1,0,0.3-0.1c0.2,0,0.3,0,0.3,0l0-0.1C588,217,592.2,215.3,591.9,213z"/>
				
					<ellipse transform="matrix(0.9926 -0.1213 0.1213 0.9926 -18.7521 69.8924)" fill="#FEC986" cx="564.7" cy="189" rx="2.4" ry="5"/>
				<path fill="#FEC986" d="M602.6,184.3c0.3,2.8-0.5,5.1-1.8,5.3c-1.3,0.2-2.6-1.9-3-4.7c-0.3-2.8,0.5-5.1,1.8-5.3
					C600.9,179.5,602.2,181.6,602.6,184.3z"/>
				<path fill="#FEC986" d="M598.1,166c-3.1,3-5.8,3.8-5.8,3.8l0-2.9l-3.1,2.9c0,0,0.9-3.9-0.9-2.9c-1.5,0.8-6.5,1.8-7.9,2.1
					c-1.4,0.1-6.5,0.3-8.2-0.1c-2-0.5-0.2,3.1-0.2,3.1l-3.7-2l0.7,2.8c0,0-2.9,0-6.6-2.2c0,0,1.8,25.5,6.4,32.3
					c4.4,6.4,11.9,6.4,15.9,6l0,0c0.1,0,0.3,0,0.4-0.1c0.1,0,0.3,0,0.4,0l0,0c4-0.6,11.3-2.4,14-9.7
					C602.5,191.1,598.1,166,598.1,166z"/>
				<path fill="#1A1A1A" d="M586.3,177.5c0,0,0.1,1,1.5,0.8c1.4-0.2,3.8-1.2,5.1-0.9c1.3,0.4,0.2-0.9-1.7-1.1
					C589.3,176.1,586.3,177.5,586.3,177.5z"/>
				<path fill="#1A1A1A" d="M576.5,178.8c0,0,0.1,1-1.2,1.1c-1.4,0.2-4-0.3-5.2,0.4c-1.2,0.7-0.4-0.8,1.4-1.5
					C573.2,178.2,576.5,178.8,576.5,178.8z"/>
				<path fill="#8B5E3C" d="M580.6,144.7c0,0-0.2,1,0.4,0.9c0.5-0.1,18.2-8.9,18.2-8.9s-0.2-0.8-0.8-0.9
					C597.8,135.8,580.6,144.7,580.6,144.7z"/>
				<path fill="#1A1A1A" d="M574.5,199.1c0,0,4.5,1,9.2-0.2c4.7-1.2,8.6-3.6,8.6-3.6s1.7,6.3-5.3,8.8
					C580,206.6,576.4,203,574.5,199.1z"/>
				<path fill="#1A1A1A" d="M586.6,185.7c0,0,0.4,0.9,1.1,0.9c0.6,0,3.5-2.6,6-2.3c2.4,0.3,2.7,1.3,2.7,1.3s0.2-2.7-4.1-2.6
					C588.1,183,586.6,185.7,586.6,185.7z"/>
				<path fill="#1A1A1A" d="M578,187.2c0,0-0.2,1-0.8,1.1c-0.6,0.2-4.1-1.7-6.4-0.7c-2.3,0.9-2.3,1.9-2.3,1.9s-0.8-2.6,3.3-3.5
					C576,185,578,187.2,578,187.2z"/>
				<g>
					<path fill="#448CCB" d="M541.5,309.6c0,0,2.5-31.7,0-43.5c0,0,20.8,12.6,28.8,21.8v37.9C570.3,325.7,552.9,311.9,541.5,309.6z"
						/>
					<path fill="#3772A6" d="M570.3,287.8c0,0,9.9-9.4,27.9-19.8c0,0-2.2,20.2-2.8,37.8l-25.1,19.9V287.8z"/>
					<path fill="#FEC986" d="M550.8,292.8c1.5-0.2,3.7-1.8,2.4-3.5c-0.5-0.7-1.9-1.1-2.6-1.4c0.9-0.3,1.8-0.3,2.1-1.3
						c0.3-1-0.3-2.2-1.1-2.9c-0.7-0.7-1.7-0.5-2.6-0.6c1.3-0.3,2.6-0.9,1.9-2.5c-1.6-3.3-6.6-1.4-9.2-0.8c0,0,0,0-0.1,0
						c-3.2,0.8-5,3.3-5.6,6.5c-0.4,2.3,0.2,5.8,1.1,7.9c0.9,2,2.6,4,4.7,4.9c2.6,1,6.3-0.3,8.9-0.7c1.6-0.2,3.3-0.8,3.3-2.7
						C553.9,294.1,552.3,292.6,550.8,292.8z"/>
					<path fill="#FEC986" d="M588.5,292.8c-1.5-0.2-3.7-1.8-2.4-3.5c0.5-0.7,1.9-1.1,2.6-1.4c-0.9-0.3-1.8-0.3-2.1-1.3
						c-0.3-1,0.3-2.2,1.1-2.9c0.7-0.7,1.7-0.5,2.6-0.6c-1.3-0.3-2.6-0.9-1.9-2.5c1.6-3.3,6.6-1.4,9.2-0.8c0,0,0,0,0.1,0
						c3.2,0.8,5,3.3,5.6,6.5c0.4,2.3-0.2,5.8-1.1,7.9c-0.9,2-2.6,4-4.7,4.9c-2.6,1-6.3-0.3-8.9-0.7c-1.6-0.2-3.3-0.8-3.3-2.7
						C585.4,294.1,587,292.6,588.5,292.8z"/>
				</g>
			</g>
			<g>
				<path fill="#E3322B" d="M1168.3,219.6c2.3,2,4.4,4.2,6.5,6.4c9.8,10.4,18.7,22.2,24.8,35.3c3.7,8.1,6,16.9,4.1,25.8
					c-0.8,3.8-1.9,6.9-5.2,9.1c-2.6,1.8-6,2.5-7.7-0.8c-2.2-4.3-1.7-9.8-2.2-14.4c-0.4-3.6,0.2-7.4-0.9-10.9c-0.9-3.1-3.5-6-5.3-8.6
					c-4.4-6.4-9.7-12.2-16.4-16.2C1166.1,245.3,1168.3,219.6,1168.3,219.6z"/>
				<path fill="#E3322B" d="M1146.3,289.9c-11.6-10.1-17-25-17-41c0-22,20.1-32.5,20.1-32.5l-11-4.8c0,0-18.6,7.2-25.8,16.3
					c-6.4,8.1,2.5,69.3,33.7,83.2V289.9z"/>
				<path fill="#6A4232" d="M1208.2,423l9.1-2.7c0,0,7.6,7.7,0.5,17.8c-7.2,10-30.1,16-55.9,13.2c-25.8-2.7-42.1-10.5-42.1-10.5
					L1208.2,423z"/>
				<g>
					<path fill="#3C2415" d="M1113.9,462.5c0,0-1.8,5.2,1.3,7.8c3.1,2.6,3,1.6,3,1.6s3.5-0.5,9.1-5c5.6-4.4,5.1-10.8,5.1-10.8
						l-0.8-1.6l0.7-0.7l1.3,1.4c0,0,3.1-2.3,3.9-4.1c0.8-1.7,0.1-3.5,0.1-3.5l-2.3-2.6L1113.9,462.5z"/>
					<path fill="#FEC986" d="M1121.5,465.3c0,0-1.7,2.9-3.2,3.5c-1.5,0.7-1.7-0.2-1.7-0.2s-0.4,1.7-2,0.4c-1.5-1.3-1.3-4.7,0.1-5.6
						C1116.1,462.5,1119.3,461.6,1121.5,465.3z"/>
					<path fill="#8D5E2D" d="M1118,438.5c0,0,1.4,8.7-1,15.1c-2.4,6.4-3.8,9.5-3.6,10.7c0.2,1.2,1.8-1.9,4.2-0.7
						c2.5,1.2,3.1,3.4,3.1,3.4s6.4-4.8,8-7.4c1.6-2.7,1.1-5.2,1.4-6.3c0.3-1.1,6.3-4.4,5.1-8.3c-1.2-3.9-6.3-12.8-6.3-12.8
						S1120.3,431.1,1118,438.5z"/>
					<path fill="#3C2415" d="M1122.4,433.8L1122.4,433.8c0,0,1.6,10.6,1.6,14.7c0,0,0,0,0,0c0,0.3-0.4,7.7-6.7,14.7
						c-0.1,0.1-0.1,0.2-0.1,0.2c0.2,0,0.3,0.1,0.5,0.2c0.2,0.1,0.4,0.2,0.5,0.3c5.5-6.1,6.6-12.5,6.9-14.7c1.2,0.3,3.9,1.2,5.9,2.9
						c0.3-0.2,0.6-0.5,0.9-0.8c-2.4-2.1-5.5-3.1-6.7-3.4c-0.1-4.6-1.6-14.4-1.6-14.4c0-0.3-0.4-0.5-0.7-0.5
						C1122.6,433.1,1122.4,433.4,1122.4,433.8z M1126.8,432c0,0.1,0,0.2,0,0.3c0,0,7,12.5,7.7,16.3c0.3-0.5,0.6-1,0.8-1.6
						c-1.5-4.8-6.5-13.6-7.3-15.1C1127.7,431.9,1127.3,431.9,1126.8,432z"/>
				</g>
				<g>
					<path fill="#3C2415" d="M1185.6,465.9c0,0,3.5,4.2,1.6,7.8c-2,3.6-2.3,2.5-2.3,2.5s-3.4,0.7-10.3-1.4c-6.8-2.2-8.6-8.3-8.6-8.3
						l0.2-1.8l-0.9-0.5l-0.8,1.8c0,0-3.7-1.1-5-2.4c-1.3-1.4-1.3-3.3-1.3-3.3l1.2-3.3L1185.6,465.9z"/>
					<path fill="#FEC986" d="M1179.6,471.3c0,0,2.6,2.1,4.2,2.2c1.6,0.1,1.5-0.8,1.5-0.8s1,1.4,2-0.3c1-1.7-0.5-4.8-2.1-5.2
						C1183.6,466.7,1180.3,467,1179.6,471.3z"/>
					<path fill="#8D5E2D" d="M1173.3,444.9c0,0,1.7,8.6,6.2,13.8c4.5,5.2,6.9,7.6,7.1,8.8c0.2,1.2-2.3-1.2-4.2,0.8
						c-1.9,2-1.7,4.2-1.7,4.2s-7.6-2.2-10.1-4.2c-2.4-1.9-2.9-4.5-3.6-5.4c-0.7-0.9-7.5-1.9-7.7-6c-0.2-4,1.4-14.3,1.4-14.3
						S1168.6,438.8,1173.3,444.9z"/>
					<path fill="#3C2415" d="M1166.9,441.6c-0.3,0.1-0.5,0.4-0.5,0.7c0,0,2,9.7,3.5,14.1c-1,0.7-3.6,2.7-5.1,5.5
						c0.4,0.2,0.8,0.3,1.1,0.4c1.3-2.3,3.5-4.1,4.5-4.8c1,1.9,4.3,7.5,11.6,11.3c0.1-0.2,0.2-0.3,0.4-0.5c0.1-0.1,0.3-0.2,0.4-0.3
						c-0.1-0.1-0.1-0.2-0.2-0.2c-8.4-4.3-11.4-11.2-11.5-11.4c0,0,0,0,0,0c-1.5-3.8-3.6-14.3-3.6-14.3l0,0
						C1167.5,441.7,1167.2,441.5,1166.9,441.6z M1161.7,442.3c-0.3,1.7-1.8,11.6-1.5,16.7c0.4,0.5,0.8,0.9,1.3,1.2
						c-0.7-3.8,1.4-17.9,1.4-17.9c0-0.1,0-0.2-0.1-0.3C1162.4,442.1,1162,442.2,1161.7,442.3z"/>
				</g>
				<path fill="#1A1A1A" d="M1178,173.7c-2.4-21.4-18.5-24.4-20.2-24.6c-1.7-0.5-17.7-4.3-28.5,14.4c-11.4,19.7-13.2,31.3-11.1,38.4
					c2.2,7.1,9.4,8.5,9.4,8.5l-1.3-2.2l3.5,2.2c0,0,1.1-6.7,15.8-3.7c14.7,3.1,12.9,9.7,12.9,9.7l4.1-0.6l-2.1,1.5
					c0,0,7.2,1.7,12-3.9C1177.4,207.6,1180.5,196.3,1178,173.7z"/>
				<path fill="#3C2415" d="M1106.9,314.9c0,0-19.1,61.5-4.8,93.4c14.3,31.9,14.3,31.9,14.3,31.9s36.3,15.5,68.8,5
					c32.5-10.5,32-25.1,32-25.1s-35.9-24.2-45.9-57.4c-10-33.3-11-42.4-11-42.4L1106.9,314.9z"/>
				<path fill="#E3322B" d="M1174.6,232c-0.3-3.5-1.3-6.9-3.5-9.5c-3-3.5-6.6-6.6-10.4-9.2l-19.6,4.3l-25.2,26.1
					c0,0-9.6,34.9-9.6,76c0,0,34.9,17.2,55.9,12c0,0,1.1-40.6,5.6-62.5c2.7-1.8,6.2-4.6,6.5-6.7c0.4-3.2-0.8-6-1.3-9
					c-0.5-3.3,0.3-6.5,0.8-9.8C1174.4,240,1174.9,235.9,1174.6,232z"/>
				<path fill="#CCCCCC" d="M1131.9,210.8c0,0-2.5,4.3-2.2,7c0.3,2.8,2.5,8.6,2.5,8.6l9-8.8c0,0,2.5,3.8,5.3,3.3
					c2.8-0.5,4.6-2.5,4.6-2.5s6.8,7.6,7.7,7.6c0.9,0,6.5-7.3,5.9-11.1c-0.6-3.8-3.7-8.1-11.8-8.1
					C1144.9,206.8,1137.5,204.8,1131.9,210.8z"/>
				<path fill="#FEC986" d="M1152.3,210.5c0-2.8-1.9-7.6-1.9-7.6l-4-0.3v0l-0.3,0l-0.3,0v0l-4,0.3c0,0-1.9,4.7-1.9,7.6
					c0,2.3,4.3,3.5,5.9,3.8v0.1c0,0,0.1,0,0.3-0.1c0.2,0,0.3,0.1,0.3,0.1v-0.1C1147.9,214,1152.3,212.9,1152.3,210.5z"/>
				
					<ellipse transform="matrix(0.9784 0.2065 -0.2065 0.9784 61.6404 -230.046)" fill="#FEC986" cx="1132.8" cy="180.3" rx="2.4" ry="5"/>
				
					<ellipse transform="matrix(0.9784 0.2067 -0.2067 0.9784 64.0252 -237.3845)" fill="#FEC986" cx="1167.8" cy="187.6" rx="2.4" ry="5"/>
				<path fill="#FEC986" d="M1171.8,169.3c-3.9,1.9-6.7,1.7-6.7,1.7l1-2.7l-3.8,1.7c0,0,2.1-3.4,0.1-3.1c-1.7,0.3-6.8-0.4-8.2-0.6
					c-1.4-0.4-6.2-1.8-7.7-2.8c-1.7-1.1-1.2,2.8-1.2,2.8l-2.8-3.1l-0.2,2.9c0,0-2.7-1-5.5-4.2c0,0-6.6,24.7-4.4,32.7
					c2,7.5,9.2,9.9,13.1,10.9l0,0c0.1,0,0.3,0,0.4,0.1c0.1,0,0.3,0.1,0.4,0.1l0,0c4,0.7,11.5,1.4,16.4-4.6
					C1167.9,194.5,1171.8,169.3,1171.8,169.3z"/>
				<path fill="#1A1A1A" d="M1158.6,175.2c0,0-0.2,0.9,1.1,1.2c1.3,0.3,4,0.1,5.1,0.8c1.1,0.7,0.4-0.8-1.2-1.6
					C1161.9,174.9,1158.6,175.2,1158.6,175.2z"/>
				<path fill="#1A1A1A" d="M1146.8,172.6c0,0-0.2,0.9-1.5,0.7c-1.3-0.3-3.7-1.5-5-1.3c-1.3,0.2-0.1-0.9,1.8-0.9
					C1143.9,171,1146.8,172.6,1146.8,172.6z"/>
				<g>
					<path fill="#FFFFFF" d="M1144.5,182.7c0,0,0.3-4.7-2.5-5.1c-2.8-0.3-4.9,2.3-4.9,2.3s-1,3.5,1.9,4.3
						C1142,185,1144,184.3,1144.5,182.7z"/>
					<path fill="#1A1A1A" d="M1144.8,183.1c0,0,0.5-5.2-2-6c-2.6-0.8-6.2,1.8-6.3,2.1c-0.1,0.3,0.7,1.2,0.7,1.2s2.4-2.5,4.8-2
						c2.4,0.5,2.3,4.9,2.3,4.9s-1.8,1.5-4.4,1c-2.5-0.5-2.7-1.4-2.7-1.4s0.1,2.2,3.4,2.3C1143.8,185.3,1144.8,183.1,1144.8,183.1z"
						/>
					<path fill="#1A1A1A" d="M1145.3,178c0,0,0.3,2.3,0,3.5c-0.3,1.2-0.5,1.7-0.5,1.7l-0.4-0.4
						C1144.5,182.7,1145.5,180.1,1145.3,178z"/>
					<path fill="#1A1A1A" d="M1142.7,182.1c-0.7-0.2-1.2-1-0.9-1.8c0.1-0.2,0.2-0.4,0.4-0.6c0,0-0.1,0-0.1,0c-1-0.3-2,0.3-2.4,1.2
						c-0.3,1,0.3,2,1.2,2.4c1,0.3,2-0.2,2.3-1.2C1143.1,182.1,1142.9,182.1,1142.7,182.1z"/>
				</g>
				<path fill="#1A1A1A" d="M1155.3,185.2c0,0,0.3,0.7,0.8,0.8c0.5,0.1,3.4-2.9,5.5-2c2.1,0.9,1.9,3.3,2.1,3.4
					c0.2,0.1,1.3-0.5,1.3-0.5s-0.4-3.9-3.6-4.6C1158.3,181.7,1155.3,185.2,1155.3,185.2z"/>
				<path fill="#1A1A1A" d="M1140.1,195.1c0,0,4.4,1.6,8.7,1.3c4.3-0.3,7.3-0.6,7.3-0.6s-1.4,5.3-7.4,5.8
					C1142.7,202.1,1140.2,196.7,1140.1,195.1z"/>
				<path fill="#FFFFFF" d="M1142.6,196.5l0.4,0.9c0,0,1.1,0.6,5,0.8c3.9,0.2,5.8-0.9,5.8-0.9l-0.2-0.8
					C1153.5,196.5,1148.2,197.9,1142.6,196.5z"/>
				<g>
					<path fill="#448CCB" d="M1137.9,310.8c0,0,2.5-31.7,0-43.5c0,0,20.8,12.6,28.8,21.8V327C1166.7,327,1149.3,313.2,1137.9,310.8z
						"/>
					<path fill="#3772A6" d="M1166.7,289.1c0,0,9.9-9.4,27.9-19.8c0,0-2.2,20.2-2.8,37.8l-25.1,19.9V289.1z"/>
					<path fill="#FEC986" d="M1147.2,294.1c1.5-0.2,3.7-1.8,2.4-3.5c-0.5-0.7-1.9-1.1-2.6-1.4c0.9-0.3,1.8-0.3,2.1-1.3
						c0.3-1-0.3-2.2-1.1-2.9c-0.7-0.7-1.7-0.5-2.6-0.6c1.3-0.3,2.6-0.9,1.9-2.5c-1.6-3.3-6.6-1.4-9.2-0.8c0,0,0,0-0.1,0
						c-3.2,0.8-5,3.3-5.6,6.5c-0.4,2.3,0.2,5.8,1.1,7.9c0.9,2,2.6,4,4.7,4.9c2.6,1,6.3-0.3,8.9-0.7c1.6-0.2,3.3-0.8,3.3-2.7
						C1150.4,295.4,1148.7,293.9,1147.2,294.1z"/>
					<path fill="#FEC986" d="M1185,294.1c-1.5-0.2-3.7-1.8-2.4-3.5c0.5-0.7,1.9-1.1,2.6-1.4c-0.9-0.3-1.8-0.3-2.1-1.3
						c-0.3-1,0.3-2.2,1.1-2.9c0.7-0.7,1.7-0.5,2.6-0.6c-1.3-0.3-2.6-0.9-1.9-2.5c1.6-3.3,6.6-1.4,9.2-0.8c0,0,0,0,0.1,0
						c3.2,0.8,5,3.3,5.6,6.5c0.4,2.3-0.2,5.8-1.1,7.9c-0.9,2-2.6,4-4.7,4.9c-2.6,1-6.3-0.3-8.9-0.7c-1.6-0.2-3.3-0.8-3.3-2.7
						C1181.8,295.4,1183.4,293.9,1185,294.1z"/>
				</g>
			</g>
		</g>
	</g>
</g>
</svg>
